<?xml version="1.0" encoding="UTF-8" standalone="no"?>
<svg
   width="16"
   height="16"
   version="1.1"
   id="svg1"
   sodipodi:docname="myhumbleself.svg"
   xml:space="preserve"
   inkscape:version="1.3.2 (091e20ef0f, 2023-11-25, custom)"
   xmlns:inkscape="http://www.inkscape.org/namespaces/inkscape"
   xmlns:sodipodi="http://sodipodi.sourceforge.net/DTD/sodipodi-0.dtd"
   xmlns:xlink="http://www.w3.org/1999/xlink"
   xmlns="http://www.w3.org/2000/svg"
   xmlns:svg="http://www.w3.org/2000/svg"><defs
     id="defs1"><linearGradient
       id="linearGradient38"
       inkscape:collect="always"><stop
         style="stop-color:#ff2e88;stop-opacity:0.39579427;"
         offset="0"
         id="stop38" /><stop
         style="stop-color:#ff2e88;stop-opacity:1;"
         offset="0.82727695"
         id="stop39" /></linearGradient><linearGradient
       id="linearGradient36"
       inkscape:collect="always"><stop
         style="stop-color:#ffffff;stop-opacity:0.69999999;"
         offset="0"
         id="stop36" /><stop
         style="stop-color:#ffffff;stop-opacity:0.3616927;"
         offset="1"
         id="stop37" /></linearGradient><linearGradient
       id="linearGradient33"
       inkscape:collect="always"><stop
         style="stop-color:#1d1d1d;stop-opacity:1;"
         offset="0.34118867"
         id="stop33" /><stop
         style="stop-color:#505053;stop-opacity:1;"
         offset="1"
         id="stop34" /></linearGradient><linearGradient
       id="a">
            <stop
   offset="0"
   style="stop-color:#282829;stop-opacity:1"
   id="stop1" />
            <stop
   offset="1"
   style="stop-color:#505053;stop-opacity:1"
   id="stop2" />
        </linearGradient><linearGradient
       xlink:href="#a"
       id="b"
       x1="35"
       x2="253"
       y1="156"
       y2="156"
       gradientTransform="rotate(-90,143.75,155.75)"
       gradientUnits="userSpaceOnUse" /><linearGradient
       inkscape:collect="always"
       xlink:href="#linearGradient33"
       id="linearGradient34"
       x1="3.3736238"
       y1="2.451648"
       x2="12.599866"
       y2="13.516129"
       gradientUnits="userSpaceOnUse" /><linearGradient
       inkscape:collect="always"
       xlink:href="#linearGradient36"
       id="linearGradient37"
       x1="3.5410903"
       y1="2.4903023"
       x2="12.016135"
       y2="13.430234"
       gradientUnits="userSpaceOnUse" /><linearGradient
       inkscape:collect="always"
       xlink:href="#linearGradient38"
       id="linearGradient39"
       x1="3.214643"
       y1="2.9896383"
       x2="12.364791"
       y2="13.735249"
       gradientUnits="userSpaceOnUse" /></defs><sodipodi:namedview
     id="namedview1"
     pagecolor="#9c9c9c"
     bordercolor="#000000"
     borderopacity="0.25"
     inkscape:showpageshadow="2"
     inkscape:pageopacity="0.0"
     inkscape:pagecheckerboard="0"
     inkscape:deskcolor="#d1d1d1"
     inkscape:zoom="4.5861782"
     inkscape:cx="20.823439"
     inkscape:cy="-8.9399056"
     inkscape:window-width="1487"
     inkscape:window-height="949"
     inkscape:window-x="26"
     inkscape:window-y="23"
     inkscape:window-maximized="0"
     inkscape:current-layer="svg1" /><ellipse
     style="fill:#808080;fill-rule:evenodd;stroke:none;stroke-width:1.5;stroke-dasharray:none;fill-opacity:1"
     id="ellipse39"
     cx="8"
     cy="8"
     rx="6.9291353"
     ry="6.9291348" /><ellipse
     style="fill:url(#linearGradient39);fill-rule:evenodd;stroke:none;stroke-width:1.5;stroke-dasharray:none;fill-opacity:1"
     id="ellipse34"
     cx="8"
     cy="8"
     rx="6.9291353"
     ry="6.9291348" /><g
     id="g34"
     transform="matrix(1.1862218,0,0,1.1862218,-1.4757168,0.95736202)"><path
       style="fill:#ffffff;stroke-width:0.428571"
       d="M 7.9999996,2.3523781 C 6.3414285,2.3523781 5,3.6938071 5,5.3523781 5,7.0066641 6.3414285,8.3523785 7.9999996,8.3523785 9.6585716,8.3523785 11,7.0066641 11,5.3523781 c 0,-1.658571 -1.3414284,-3 -3.0000004,-3 z m -1.285714,1.714286 c 0.235714,0 0.428572,0.192857 0.428572,0.428571 0,0.235714 -0.192858,0.428572 -0.428572,0.428572 -0.2357145,0 -0.4285711,-0.192858 -0.4285711,-0.428572 0,-0.235714 0.1928566,-0.428571 0.4285711,-0.428571 z m 2.571429,0 c 0.235714,0 0.428571,0.192857 0.428571,0.428571 0,0.235714 -0.192857,0.428572 -0.428571,0.428572 -0.235715,0 -0.428571,-0.192858 -0.428571,-0.428572 0,-0.235714 0.192856,-0.428571 0.428571,-0.428571 z m -2.498571,2.07 c 0.321428,0.3214285 0.758571,0.5014285 1.212856,0.5014285 0.454286,0 0.891429,-0.18 1.212858,-0.5014285 l 0.3,0.3 c -0.398572,0.4028571 -0.942858,0.63 -1.512858,0.63 -0.57,0 -1.114285,-0.2271429 -1.5128571,-0.63 z"
       id="path1" /><path
       style="fill:#ffffff;stroke-width:0.928573"
       class="ColorScheme-Text"
       d="M 5.9198139,8.2196848 C 3.4544564,8.2670438 2.8533015,9.7874363 3.4787363,10.56542 l 0.5496584,0.683725 c 0.3223161,0.400932 0.7143348,0.418387 1.2278268,0.449413 l 3.6165521,0.218517 c 0.5134935,0.03103 2.3347834,-0.735122 2.7869974,-0.980349 l 0.86003,-0.466377 C 13.397295,9.9945008 12.545357,8.2670412 10.079999,8.2196848 9.5310284,8.7842549 8.8332994,9.1389692 7.9999999,9.1389692 c -0.8333001,0 -1.5308432,-0.3547143 -2.080186,-0.9192844 z"
       id="path1-2"
       sodipodi:nodetypes="csssssscsc" /></g><ellipse
     style="fill:none;fill-rule:evenodd;stroke:#f9f9f9;stroke-width:0.992382;stroke-dasharray:none"
     id="path2"
     cx="8"
     cy="8"
     rx="7.5038099"
     ry="7.5038095" /><ellipse
     style="fill:none;fill-rule:evenodd;stroke:url(#linearGradient34);stroke-width:1.5;stroke-dasharray:none;fill-opacity:1"
     id="ellipse2"
     cx="8"
     cy="8"
     rx="6.9291353"
     ry="6.9291348" /><circle
     style="fill:none;fill-rule:evenodd;stroke:url(#linearGradient37);stroke-width:0.0985614;stroke-dasharray:none"
     id="path3"
     cx="8"
     cy="8"
     r="6.8067193" /><g
     fill="#222222"
     id="g44"
     transform="matrix(0.26866088,0.11469046,-0.11469046,0.26866088,10.173375,1.0256174)"
     style="fill:#008fff;fill-opacity:1"><path
       d="M 8,1 C 7.792969,1 7.609375,1.125 7.53125,1.320312 L 5.804688,5.808594 1.320312,7.53125 c -0.425781,0.167969 -0.425781,0.769531 0,0.9375 l 4.484376,1.722656 1.726562,4.488282 c 0.167969,0.425781 0.769531,0.425781 0.9375,0 l 1.726562,-4.488282 4.484376,-1.722656 c 0.425781,-0.167969 0.425781,-0.769531 0,-0.9375 L 10.195312,5.808594 8.46875,1.320312 C 8.394531,1.128906 8.207031,1 8,1 Z M 8,7 C 8.550781,7 9,7.449219 9,8 9,8.550781 8.550781,9 8,9 7.449219,9 7,8.550781 7,8 7,7.449219 7.449219,7 8,7 Z m 0,0"
       id="path43"
       style="fill:#008fff;fill-opacity:1" /><path
       d="M 3.480469,3 C 3.117188,3.011719 2.890625,3.398438 3.050781,3.722656 L 3.921875,5.460938 5.03125,5.03125 5.460938,3.921875 3.722656,3.050781 C 3.648438,3.015625 3.566406,2.996094 3.480469,3 Z m 9.039062,0 C 12.433591,2.99609 12.351562,3.015625 12.277344,3.050781 L 10.539062,3.921875 10.96875,5.03125 12.078125,5.460938 12.949219,3.722656 C 13.109375,3.398438 12.882812,3.011719 12.519531,3 Z m -8.597656,7.539062 -0.871094,1.738282 c -0.210937,0.429687 0.242188,0.882812 0.671875,0.671875 L 5.460938,12.078125 5.03125,10.96875 Z m 8.15625,0 -1.109375,0.429688 -0.429688,1.109375 1.738282,0.871094 c 0.429687,0.210937 0.882812,-0.242188 0.671875,-0.671875 z m 0,0"
       id="path44"
       style="fill:#008fff;fill-opacity:1" /></g></svg>
