<?xml version="1.0" encoding="UTF-8" standalone="no"?>
<svg
   height="16px"
   viewBox="0 0 16 16"
   width="16px"
   version="1.1"
   id="svg4"
   sodipodi:docname="04-paint-symbolic.svg"
   xml:space="preserve"
   inkscape:version="1.3.2 (091e20ef0f, 2023-11-25, custom)"
   xmlns:inkscape="http://www.inkscape.org/namespaces/inkscape"
   xmlns:sodipodi="http://sodipodi.sourceforge.net/DTD/sodipodi-0.dtd"
   xmlns="http://www.w3.org/2000/svg"
   xmlns:svg="http://www.w3.org/2000/svg"><defs
     id="defs4" /><sodipodi:namedview
     id="namedview4"
     pagecolor="#ffffff"
     bordercolor="#000000"
     borderopacity="0.25"
     inkscape:showpageshadow="2"
     inkscape:pageopacity="0.0"
     inkscape:pagecheckerboard="0"
     inkscape:deskcolor="#d1d1d1"
     inkscape:zoom="27.887545"
     inkscape:cx="8.1936218"
     inkscape:cy="8.103976"
     inkscape:window-width="1503"
     inkscape:window-height="965"
     inkscape:window-x="0"
     inkscape:window-y="0"
     inkscape:window-maximized="1"
     inkscape:current-layer="svg4" /><path
     style="fill:#222222;fill-opacity:1;stroke-width:0.0148816"
     d="m 0.04660902,15.987957 c -0.0336073,-0.02457 -0.0183815,-0.05126 0.0292676,-0.05126 0.0399772,0 0.0469668,0.02125 0.016882,0.05132 -0.0160142,0.01602 -0.0241791,0.01597 -0.0461348,-7.9e-5 z m 0.30368461,-0.07358 c 0,-0.04795 0.00355,-0.05209 0.0446433,-0.05209 0.0411057,0 0.0446472,0.0041 0.0446472,0.05209 0,0.04795 -0.00355,0.05208 -0.0446472,0.05208 -0.0411018,0 -0.0446433,-0.0041 -0.0446433,-0.05208 z m -0.32367527,-0.01484 c -0.010217,-0.01163 -0.0180651,-0.05322 -0.0174344,-0.09244 7.8882e-4,-0.03921 0.004146,-0.06414 0.007814,-0.05535 0.00355,0.0088 0.0255992,0.01316 0.0487767,0.0098 0.0373937,-0.0055 0.0432279,-7.66e-4 0.051724,0.04169 0.0192493,0.09616 0.0132533,0.118618 -0.0313582,0.118003 -0.0225229,-3.12e-4 -0.0492934,-0.01009 -0.0595258,-0.0217 z m 7.35262354,-0.06282 c -0.046364,-0.0059 -0.047423,-0.0077 -0.055096,-0.09807 -0.0043,-0.05068 -0.015146,-0.26065 -0.02414,-0.466599 -0.00899,-0.205947 -0.020195,-0.398478 -0.024968,-0.427845 l -0.00868,-0.0534 H 7.0971655 c -0.1028757,0 -0.1691939,0.0059 -0.1691939,0.01488 0,0.0081 -0.016724,0.01488 -0.037197,0.01488 -0.020473,0 -0.037197,-0.0068 -0.037197,-0.01488 0,-0.0081 -0.012031,-0.01488 -0.026784,-0.01488 -0.014753,0 -0.033173,-0.0064 -0.04094,-0.01417 -0.00859,-0.0086 -0.034514,-0.009 -0.066224,-0.0012 -0.2437802,0.0611 -0.3082879,0.07331 -0.4371576,0.08272 l -0.1469827,0.01077 0.00832,0.08047 c 0.00457,0.04425 0.00443,0.104422 -3.512e-4,0.133709 -0.00859,0.05295 -0.00899,0.0532 -0.072775,0.04602 -0.039552,-0.0044 -0.066236,-7.66e-4 -0.0696,0.0091 -0.00611,0.01834 -0.068361,0.02143 -0.6177037,0.03052 -0.2081614,0.0036 -0.3844278,0.01262 -0.394364,0.02054 -0.027572,0.02198 -0.5396269,0.03334 -0.6764764,0.01502 -0.063199,-0.0084 -0.078128,-0.0063 -0.078128,0.01117 0,0.02552 0.00532,0.02552 -0.192987,7.66e-4 -0.1337016,-0.01668 -0.1588082,-0.01641 -0.1771224,0.002 -0.016094,0.01613 -0.042071,0.01893 -0.1060627,0.01152 -0.049531,-0.0058 -0.1107647,-0.0028 -0.1474167,0.007 -0.078984,0.02126 -0.6115859,0.02959 -0.6115859,0.0094 0,-0.0079 -0.015501,1.98e-4 -0.034435,0.018 -0.041326,0.03882 -0.072874,0.04073 -0.1236077,0.0075 -0.030372,-0.01992 -0.04034,-0.02102 -0.049913,-0.0055 -0.0073,0.01183 -0.029782,0.01673 -0.057687,0.01265 -0.027572,-0.0041 -0.048457,3.94e-4 -0.052617,0.01124 -0.00934,0.02433 -0.7107064,0.02485 -0.7269419,3.94e-4 -0.00605,-0.009 -0.011044,-0.05535 -0.011163,-0.103006 -2.326e-4,-0.08324 -0.020708,-0.12915 -0.057657,-0.12915 -0.0082,0 -0.017829,-0.01506 -0.02134,-0.03349 -0.00552,-0.02872 -0.00675,-0.02765 -0.00848,0.0074 -0.00157,0.0351 -0.00836,0.04092 -0.046671,0.04092 -0.040063,0 -0.04484,-0.0049 -0.046529,-0.04836 l -0.00198,-0.04836 -0.015226,0.05419 c -0.014201,0.0505 -0.020038,0.05483 -0.086289,0.06361 -0.03909,0.0051 -0.073242,0.01582 -0.075899,0.02366 -0.00706,0.02074 -0.1612695,0.04686 -0.2116485,0.03582 l -0.043105,-0.0094 0.00876,-0.184909 0.00876,-0.184908 -0.042442,-0.0084 c -0.024456,-0.0048 -0.045558,-0.02042 -0.049803,-0.03664 -0.00758,-0.02903 -0.039914,-0.03978 -0.039914,-0.0133 0,0.0081 -0.014042,0.01488 -0.031162,0.01488 -0.018657,0 -0.034276,0.01196 -0.038932,0.02978 -0.00552,0.02107 -0.020314,0.02978 -0.050694,0.02978 -0.035856,0 -0.042908,-0.0062 -0.042908,-0.03721 0,-0.02046 -0.0067,-0.03721 -0.014871,-0.03721 -0.0082,0 -0.014871,-0.01676 -0.014871,-0.03721 0,-0.02315 0.00844,-0.03721 0.022325,-0.03721 0.015817,0 0.022405,-0.01629 0.02268,-0.0558 1.933e-4,-0.03069 0.0062,-0.08093 0.013293,-0.111612 0.01211,-0.0522 0.010729,-0.0558 -0.021617,-0.0558 -0.019012,0 -0.044182,-0.0095 -0.055925,-0.02133 -0.029307,-0.0293 -0.044194,-0.180679 -0.031753,-0.323292 0.00611,-0.06999 0.00434,-0.131918 -0.00429,-0.15112 -0.018657,-0.0414 -0.047673,-0.123853 -0.06381,-0.181347 -0.017356,-0.06179 -0.043303,-0.445031 -0.036289,-0.535738 0.00315,-0.04093 0.013293,-0.201112 0.022523,-0.355972 0.015344,-0.257783 0.019447,-0.283718 0.04826,-0.307062 0.026664,-0.02157 0.030925,-0.03929 0.027927,-0.115426 -0.00198,-0.04946 0.00315,-0.09416 0.011676,-0.09934 0.00836,-0.0051 0.015226,-0.0224 0.015226,-0.03831 0,-0.01589 0.0073,-0.02886 0.016173,-0.02886 0.018696,0 0.00394,-0.117765 -0.017712,-0.140632 -0.00734,-0.0077 -0.013333,-0.05337 -0.013333,-0.101306 0,-0.04794 -0.00666,-0.115245 -0.014792,-0.149563 -0.00812,-0.03431 -0.020274,-0.249491 -0.027021,-0.478168 -0.00876,-0.297606 -0.017277,-0.417443 -0.02986,-0.421647 -0.0213,-0.0071 -0.023785,-0.0778 -0.00277,-0.0778 0.030137,0 0.011044,-0.573238 -0.030964,-0.9301021 -0.023623,-0.200499 -0.023664,-0.200635 -0.067976,-0.200635 h -0.038854 l 0.01061,-0.107597 c 0.00582,-0.05917 0.015069,-0.1144247 0.020511,-0.122772 0.00544,-0.00833 0.010571,-0.045311 0.011359,-0.082142 7.888e-4,-0.036837 0.00891,-0.1372831 0.018106,-0.223225 0.00919,-0.085942 0.016922,-0.2256158 0.017197,-0.3103824 3.945e-4,-0.1490183 0.038262,-0.4184964 0.060813,-0.4337023 0.016685,-0.011242 0.020235,-0.063375 0.00651,-0.095262 -0.00679,-0.015778 -0.00394,-0.091444 0.00675,-0.1711387 0.010413,-0.078561 0.024337,-0.193066 0.030925,-0.2544537 0.00659,-0.061388 0.016685,-0.1266292 0.022444,-0.1449829 0.00576,-0.018341 0.00611,-0.061884 7.889e-4,-0.096734 -0.00947,-0.062688 -0.011045,-0.0641 -0.1326455,-0.1198352 C 0.61317043,7.4963404 0.48456492,7.3628202 0.4840285,7.2327789 0.48394956,7.2113209 0.473891,7.1608719 0.4617025,7.1206929 0.4446628,7.0644839 0.4395346,6.9630838 0.4395346,6.6809398 c 0,-0.378803 -0.00355,-0.4024147 -0.0613487,-0.4024147 -0.0539604,0 -0.0971249,-0.2736158 -0.0899022,-0.5698731 C 0.2914377,5.5869809 0.2870937,5.4960728 0.2785057,5.4854306 0.2394161,5.4378936 0.2164827,4.8754658 0.2483694,4.7457166 0.2574034,4.7088756 0.2664345,4.63522 0.2683684,4.582017 0.2703414,4.528814 0.2771264,4.4333856 0.2835149,4.3699545 0.2914379,4.2907735 0.2900999,4.2546222 0.2791709,4.2546222 0.2680864,4.2546222 0.2625646,4.0156466 0.2609481,3.4696138 0.2597581,3.0378602 0.2585781,2.6544736 0.2581811,2.6176403 0.25739229,2.4094591 0.3005602,1.7433449 0.3168273,1.714558 0.3421895,1.669693 0.340454,1.665214 0.2979728,1.665214 c -0.0289522,0 -0.0371964,-0.00762 -0.0371964,-0.034436 0,-0.025679 0.013529,-0.03974 0.0533019,-0.055345 0.0513531,-0.020157 0.0995662,-0.073927 0.0662746,-0.073927 -0.00848,0 -0.0154232,0.0067 -0.0154232,0.014871 0,0.00816 -0.0167244,0.014871 -0.0371964,0.014871 -0.0297417,0 -0.0371964,-0.00745 -0.0371964,-0.037196 0,-0.028124 0.008162,-0.03763 0.0334883,-0.038972 C 0.35005867,1.4539 0.34757347,1.45114 0.31286247,1.443602 0.27444327,1.435242 0.26823917,1.427193 0.26836507,1.385836 0.26847941,1.349822 0.26192907,1.337784 0.24233157,1.337784 c -0.0162513,0 -0.0261913,0.01128 -0.0261913,0.029781 0,0.034476 -0.0277294,0.037827 -0.0993928,0.011913 L 0.06732367,1.361608 V 1.2547196 c 0,-0.09774 0.002767,-0.1078063 0.0334883,-0.1176399 0.0283612,-0.00911 0.0295046,-0.011834 0.007448,-0.017711 -0.029939,-0.008 -0.0349878,-0.064267 -0.008162,-0.091086 0.0287152,-0.028715 0.12749705,-0.02272 0.13557927,0.00816 0.004185,0.016014 0.007448,0.010296 0.008519,-0.014871 0.00119,-0.032542 0.008876,-0.040924 0.0367234,-0.040924 0.0445172,0 0.13312973,0.030057 0.14597684,0.049519 0.005405,0.00816 0.006109,0.077398 0.001577,0.1538186 -0.00592,0.099389 -0.00355,0.1389399 0.008758,0.1389399 0.009391,0 0.0170804,0.016764 0.0170804,0.037196 0,0.031438 -0.006943,0.037197 -0.0446433,0.037197 -0.0245737,0 -0.0446442,0.0067 -0.0446442,0.014871 0,0.0082 0.0134109,0.014871 0.0297406,0.014871 0.0165271,0 0.0297803,0.0099 0.0297803,0.022325 0,0.012268 0.0102551,0.022325 0.0227996,0.022325 0.0125433,0 0.0264283,0.00943 0.0308454,0.020985 0.004423,0.011519 0.0259145,0.025441 0.0477473,0.030964 0.0218526,0.00548 0.0431169,0.015226 0.0472901,0.021655 0.009273,0.014279 0.12424681,-0.00276 0.24941663,-0.036919 l 0.093011,-0.025404 v -0.057705 c 0,-0.054185 0.00277,-0.057697 0.044643,-0.057697 0.024573,0 0.044647,0.00576 0.044647,0.012819 0,0.00706 0.016724,0.00962 0.037197,0.00572 0.036171,-0.00691 0.037196,-0.01061 0.037196,-0.1318714 0,-0.1009743 -0.00425,-0.1247597 -0.022325,-0.1247597 -0.013885,0 -0.022326,-0.014042 -0.022326,-0.037196 0,-0.027926 0.00784,-0.037196 0.031359,-0.037196 0.017237,0 0.044178,-0.01633 0.059865,-0.036249 0.015699,-0.019959 0.065419,-0.050067 0.1105122,-0.066938 0.045093,-0.016881 0.097827,-0.041055 0.1171862,-0.053739 0.043567,-0.028558 0.318287,-0.1254578 0.3562249,-0.125663 0.021931,-1.143e-4 0.0256,-0.00718 0.017434,-0.033646 -0.013687,-0.044324 -0.027139,-0.40896642 -0.016607,-0.45082903 0.013885,-0.055325 0.084846,-0.0742509 0.1763413,-0.0470382 0.042793,0.0127406 0.1202908,0.027414 0.1722077,0.032582 0.05192,0.005206 0.1121885,0.0163694 0.1339344,0.0248505 0.021734,0.00848 0.065846,0.0151465 0.097996,0.0148708 0.032148,-2.7223e-4 0.07177,0.006624 0.088041,0.0153438 0.017514,0.009391 0.1636914,0.0177101 0.3582288,0.0204323 0.1807551,0.00237 0.4056571,0.0132136 0.4997839,0.0237456 0.1525878,0.0170794 0.2993062,0.0235483 0.6287482,0.0277294 0.055249,7.888e-4 0.1004504,0.007647 0.1004504,0.0153835 0,0.007775 0.013412,0.0141211 0.029781,0.0141211 0.017987,0 0.030215,0.0103347 0.030925,0.0260335 7.889e-4,0.0207477 0.00277,0.0214975 0.00966,0.00355 0.00469,-0.0122676 0.012661,-0.0256776 0.017711,-0.0297803 0.020393,-0.0164884 0.075979,-0.20473366 0.076898,-0.26042954 0.00119,-0.0807705 0.032818,-0.16258315 0.064997,-0.16883901754 C 4.2303263,-0.0060275 4.3235467,0.0438672 4.3235467,0.0686462 c 0,0.010413 0.010058,0.018934 0.022325,0.018934 0.012268,0 0.022325,0.0100585 0.022325,0.0223256 0,0.0122676 0.010058,0.0223256 0.022327,0.0223256 0.012385,0 0.022325,0.0132136 0.022325,0.0297803 0,0.0237854 0.0099,0.0297813 0.049301,0.0297813 0.04991,0 0.1292802,0.0621728 0.1292802,0.10126629 0,0.009778 0.010058,0.0177894 0.022325,0.0177894 0.012268,0 0.022325,0.0100585 0.022325,0.0223266 0,0.0140815 0.0142,0.0223256 0.03834,0.0223256 0.02276,0 0.056489,0.0181444 0.082996,0.0446433 0.049459,0.04946 0.081959,0.0546347 0.1517162,0.0241791 0.040786,-0.0178291 0.2881749,-0.0969831 0.3296471,-0.10548697 0.00816,-0.001577 0.014871,-0.0292676 0.014871,-0.0613129 v -0.0582594 l 0.088581,-0.00355 c 0.093175,-0.00355 0.1116756,0.007101 0.1120939,0.0649536 2.721e-4,0.0405257 0.032898,0.0488283 0.1537513,0.0391292 0.099259,-0.007964 0.2753239,0.0224842 0.3778841,0.0653166 0.058997,0.0246522 0.182909,0.14308171 0.182909,0.1748149 0,0.0113602 0.010058,0.0244944 0.022325,0.029229 0.024771,0.00951 0.030215,0.083705 0.00919,0.1250318 -0.00722,0.014201 -0.022286,0.045933 -0.03345,0.070487 -0.011163,0.024573 -0.023983,0.047992 -0.028479,0.052087 -0.011676,0.01061 -0.073731,0.1003156 -0.073647,0.1064691 3.94e-5,0.00276 0.073359,0.00572 0.1629341,0.00643 l 0.1628671,0.00118 0.00449,-0.045945 c 0.00419,-0.043011 0.00816,-0.045824 0.061972,-0.044095 0.031634,0.00118 0.062586,0.010099 0.068815,0.020157 0.00765,0.012385 0.019131,0.00276 0.0355,-0.030176 0.027926,-0.056003 0.030175,-0.073691 0.00931,-0.073691 -0.00816,0 -0.014871,0.010058 -0.014871,0.022325 0,0.013885 -0.014042,0.022325 -0.037196,0.022325 -0.029781,0 -0.037197,-0.00745 -0.037197,-0.037196 0,-0.020473 0.00718,-0.037196 0.015935,-0.037196 0.00876,0 0.00592,-0.010058 -0.00639,-0.022325 -0.012268,-0.012268 -0.033133,-0.022325 -0.046382,-0.022325 -0.013254,0 -0.040502,-0.016448 -0.060591,-0.036526 -0.031082,-0.031083 -0.036526,-0.050567 -0.036526,-0.13047917 0,-0.16884704 0.080924,-0.23631708 0.3369089,-0.28089353 0.1537791,-0.0267833 0.4171433,-0.007735 0.5314659,0.0384588 0.077569,0.0313195 0.092517,0.0334496 0.1030138,0.0147131 0.01633,-0.0291893 0.07967,-0.0280845 0.091058,0.001577 0.014595,0.0380641 0.010335,0.14015883 -0.00584,0.14015883 -0.00816,0 -0.014871,0.0128199 -0.014871,0.0285188 0,0.0156988 -0.00836,0.0319105 -0.018617,0.0360132 -0.010212,0.004146 -0.00157,0.008043 0.019328,0.008677 0.020866,7.8881e-4 0.045985,0.009193 0.055806,0.0190123 0.013884,0.0138851 0.017869,0.00726 0.017869,-0.0297803 0,-0.0465166 0.00157,-0.0476213 0.066966,-0.0476213 0.042687,0 0.067628,-0.006743 0.068783,-0.0186174 0.00118,-0.010217 0.00276,-0.045389 0.00355,-0.0781276 l 0.00198,-0.0595259 0.095575,2.3662e-4 c 0.062342,1.5381e-4 0.0977,0.006624 0.1016918,0.0186174 0.010212,0.0306083 0.03952,0.0207874 0.081844,-0.0274538 0.029821,-0.0340011 0.050817,-0.0446829 0.08145,-0.0414727 0.02268,0.00237 0.049937,-0.00119 0.060544,-0.007577 0.031162,-0.0192889 0.1667209,0.004929 0.1667209,0.0297803 0,0.0249288 0.085454,0.11423184 0.1231068,0.12868434 0.014753,0.005644 0.025718,0.0255209 0.025718,0.0465333 0,0.0235879 0.01061,0.0400366 0.029781,0.0461149 0.017907,0.005683 0.029661,0.0224048 0.029545,0.0419259 -3.905e-4,0.0533654 -0.022208,0.0745585 -0.067782,0.0658451 -0.025126,-0.0048 -0.049583,2.328e-4 -0.062173,0.012859 -0.011438,0.011437 -0.036249,0.020748 -0.055167,0.020748 -0.021891,0 -0.037236,0.010847 -0.04219,0.029781 -0.012503,0.047759 -0.077907,0.038892 -0.1096641,-0.014871 -0.030215,-0.051132 -0.072357,-0.058619 -0.083797,-0.014871 -0.00596,0.022799 -0.020314,0.029781 -0.061261,0.029781 -0.049061,0 -0.05348,-0.00355 -0.05348,-0.043054 0,-0.025521 -0.00959,-0.046725 -0.023548,-0.052083 -0.039326,-0.0151068 -0.050868,-0.010413 -0.050868,0.020708 0,0.016369 -0.00927,0.029781 -0.02059,0.029781 -0.011321,0 -0.024101,0.013413 -0.028361,0.029781 -0.014239,0.054409 -0.1147446,0.033448 -0.1147446,-0.023904 0,-0.021734 -0.00872,-0.035618 -0.022325,-0.035618 -0.012268,0 -0.022325,-0.00671 -0.022325,-0.014871 0,-0.008162 -0.026784,-0.0148708 -0.059525,-0.0148708 -0.048395,0 -0.059525,0.005246 -0.059525,0.0280458 0,0.015423 -0.016488,0.038853 -0.036683,0.052087 -0.040872,0.026784 -0.09725,0.032069 -0.09725,0.00915 0,-0.016252 -0.087515,-0.020352 -0.1252763,-0.00584 -0.033725,0.012938 -0.02911,0.050498 0.00623,0.050498 0.021812,0 0.02978,0.0099 0.02978,0.037196 0,0.029781 -0.00745,0.037196 -0.037196,0.037196 -0.023509,0 -0.037196,0.0084 -0.037196,0.022799 0,0.012543 -0.010058,0.026626 -0.022325,0.031359 -0.012268,0.00473 -0.022325,0.017356 -0.022325,0.028044 0,0.01073 -0.00836,0.022878 -0.018617,0.026979 -0.010212,0.00415 0.00276,0.00804 0.028558,0.00868 0.072333,0.00198 0.094226,-0.01211 0.094226,-0.059944 0,-0.036014 0.00611,-0.043054 0.037196,-0.043054 0.020473,0 0.037197,0.0067 0.037197,0.014871 0,0.0082 0.016724,0.014871 0.037197,0.014871 0.023154,0 0.037196,0.00844 0.037196,0.022325 0,0.012268 0.00718,0.022325 0.015935,0.022325 0.023706,0 0.058466,0.039169 0.058466,0.065905 0,0.01491 0.013253,0.02339 0.036643,0.02339 0.020157,0 0.1021861,0.013057 0.1823015,0.028992 0.4289453,0.085311 0.4648438,0.089548 0.636582,0.075158 0.1039014,-0.00872 0.1687405,-0.00848 0.1778364,7.888e-4 0.00789,0.00789 0.056499,0.014318 0.1080667,0.014318 0.064291,0 0.094222,0.00584 0.095235,0.018617 0.00277,0.03337 0.025284,-0.054516 0.026784,-0.10417328 0.00119,-0.036959 0.00812,-0.048364 0.029545,-0.048364 0.017434,0 0.037433,-0.019723 0.052801,-0.052126 0.032305,-0.068089 0.091555,-0.1264557 0.1283607,-0.1264557 0.016094,0 0.049093,0.021773 0.073296,0.048367 0.041106,0.045187 0.044024,0.046185 0.044435,0.015186 3.943e-4,-0.043633 0.057677,-0.058048 0.152793,-0.038576 0.039674,0.00812 0.075596,0.00919 0.079821,0.00237 0.00954,-0.015462 0.095176,-0.016567 0.095334,-0.00118 1.185e-4,0.011953 0.071028,0.048366 0.094222,0.048366 0.0077,0 0.021694,0.010532 0.031082,0.02339 0.017987,0.024613 0.097787,0.01633 0.097787,-0.01014 0,-0.0073 0.016764,-0.013254 0.037198,-0.013254 0.027292,0 0.0372,0.00793 0.0372,0.029743 0,0.026665 0.00994,0.029781 0.095761,0.029781 0.05268,0 0.113578,0.00679 0.135355,0.015069 l 0.0396,0.015068 -0.01026,-0.074578 c -0.0069,-0.050317 -0.0049,-0.074582 0.006,-0.074582 0.0089,0 0.01629,-0.0067 0.01629,-0.014871 0,-0.00816 -0.01006,-0.014871 -0.02232,-0.014871 -0.01227,0 -0.02233,-0.011913 -0.02233,-0.026466 0,-0.014555 -0.01341,-0.036131 -0.02978,-0.04793 -0.01637,-0.011793 -0.02978,-0.029821 -0.02978,-0.040021 0,-0.010375 -0.0098,-0.014792 -0.02233,-0.010016 -0.01227,0.00469 -0.02232,0.017908 -0.02232,0.029307 0,0.011399 0.01006,0.020749 0.02232,0.020749 0.01613,0 0.02233,0.016528 0.02233,0.059525 0,0.053573 -0.0036,0.059525 -0.03719,0.059525 -0.02047,0 -0.0372,-0.0067 -0.0372,-0.014871 0,-0.00816 -0.01006,-0.014871 -0.02233,-0.014871 -0.01238,0 -0.02232,-0.013214 -0.02232,-0.029781 0,-0.016369 -0.0067,-0.029741 -0.01487,-0.029741 -0.00813,0 -0.014867,0.023429 -0.014867,0.052083 0,0.044199 -0.00505,0.052087 -0.033728,0.052087 -0.026905,0 -0.038932,-0.014674 -0.059529,-0.072685 -0.0142,-0.039977 -0.025797,-0.083505 -0.025797,-0.09673 0,-0.013214 -0.010058,-0.024061 -0.022325,-0.024061 -0.012268,0 -0.022327,-0.00887 -0.022327,-0.019762 0,-0.01349 -0.01416,-0.0176715 -0.044643,-0.013214 -0.039892,0.00588 -0.044643,0.00237 -0.044643,-0.0323449 0,-0.0213785 0.00592,-0.0388923 0.013136,-0.0388923 0.00722,0 0.016646,-0.0134119 0.020945,-0.0297417 0.00465,-0.0178291 0.020314,-0.0297803 0.038932,-0.0297803 0.01779,0 0.031161,-0.00959 0.031161,-0.0223256 0,-0.0122676 -0.010058,-0.0223256 -0.022326,-0.0223256 -0.014871,0 -0.022327,-0.0148708 -0.022327,-0.0446471 0,-0.0297813 0.00744,-0.0446433 0.022327,-0.0446433 0.012268,0 0.022326,-0.00998 0.022326,-0.0222075 0,-0.0285575 0.059127,-0.0968443 0.083879,-0.0968443 0.010453,0 0.052314,-0.019643 0.093043,-0.0436693 0.09546,-0.056288 0.165735,-0.075197 0.2798089,-0.0753001 0.05067,-3.946e-5 0.09627,-0.006782 0.101327,-0.0149491 0.01144,-0.0184995 0.09199,-0.0196837 0.103209,-0.001577 0.0048,0.007775 0.03156,0.007923 0.06413,3.5107e-4 0.09374,-0.0217741 0.22258,-0.0169614 0.232409,0.008638 0.0049,0.0128199 0.02714,0.0223266 0.05208,0.0223266 0.04964,0 0.06159,0.0204323 0.06159,0.10538828 0,0.0483869 -0.005,0.0583071 -0.02978,0.0583071 -0.01638,0 -0.02974,0.007061 -0.02974,0.0156592 0,0.020472 0.0637,0.13914906 0.07812,0.1455627 0.0062,0.002767 0.01125,0.0328576 0.01141,0.0669687 3.94e-4,0.11005446 0.0032,0.11107206 0.323868,0.12181696 0.222925,0.00744 0.251421,0.011359 0.273557,0.037512 0.02683,0.031675 0.05715,0.038734 0.05715,0.013293 0,-0.00872 0.01843,-0.013767 0.04092,-0.011163 0.02991,0.00355 0.04226,0.01412 0.04587,0.039735 l 0.0049,0.035026 0.02257,-0.032226 c 0.02094,-0.0299 0.03076,-0.031517 0.136415,-0.022444 0.06262,0.00536 0.142314,0.00907 0.1771,0.0082 0.05394,-0.00118 0.06323,0.00276 0.06323,0.028362 0,0.030687 0.01534,0.035539 0.09518,0.030137 0.04152,-0.00276 0.04277,-7.889e-4 0.03444,0.050509 -0.0066,0.040562 -0.0036,0.053436 0.0127,0.053436 0.0127,0 0.02138,-0.014634 0.02138,-0.035974 0,-0.019762 0.0083,-0.039326 0.01861,-0.043469 0.01113,-0.00449 0.0081,-0.00797 -0.0074,-0.00868 -0.01716,-7.888e-4 -0.02604,-0.013214 -0.02604,-0.036526 0,-0.027689 0.01009,-0.037354 0.0465,-0.044647 0.075,-0.014989 0.28089,-0.010925 0.28089,0.00555 0,0.0082 0.02304,0.014871 0.05118,0.014871 0.04816,0 0.05154,0.00315 0.05715,0.055806 0.0051,0.048288 0.0075,0.051297 0.01751,0.022325 0.0064,-0.018421 0.01746,-0.033488 0.02469,-0.033488 0.0072,0 0.01313,-0.00959 0.01313,-0.0213 0,-0.031003 0.03592,-0.037947 0.186021,-0.035974 0.07367,7.888e-4 0.18587,-0.00315 0.249345,-0.00943 0.08527,-0.00828 0.121357,-0.00627 0.138163,0.0077 0.01838,0.015265 0.02959,0.015226 0.05826,-1.184e-4 0.02328,-0.012465 0.05511,-0.015226 0.0925,-0.00804 0.03136,0.00605 0.144053,0.00931 0.250458,0.0073 0.246754,-0.00469 0.270365,-0.00473 0.342277,-7.887e-4 0.03273,0.00198 0.195134,-0.00157 0.360879,-0.00726 0.286365,-0.010058 0.301354,-0.00923 0.301354,0.016724 0,0.021261 0.004,0.023351 0.01788,0.00947 0.02135,-0.02134 0.125446,-0.023944 0.1381,-0.00355 0.0048,0.00793 0.02741,0.01069 0.05009,0.00616 0.05771,-0.011558 0.204378,0.018026 0.246611,0.049696 0.05675,0.042565 0.09797,0.1136719 0.09785,0.1687839 -7.8e-5,0.028124 0.01148,0.11980527 0.02561,0.20370027 0.02074,0.1231937 0.03053,0.1525365 0.05086,0.1525365 0.02773,0 0.102212,0.080506 0.102212,0.1104688 0,0.010375 0.01128,0.041519 0.02509,0.069178 0.01957,0.039247 0.02473,0.088301 0.0234,0.2234462 -0.0015,0.1787397 -0.02284,0.266871 -0.07249,0.3031877 -0.01857,0.013608 -0.02197,0.034791 -0.01566,0.098253 0.01665,0.1674112 0.05422,0.4841246 0.06166,0.5199324 0.0042,0.020473 0.01449,0.1175648 0.02272,0.215786 0.0082,0.098217 0.02138,0.2120625 0.02919,0.2529863 0.04362,0.2285347 0.104686,1.0139061 0.104686,1.3465272 0,0.2582088 0.0012,0.2681332 0.02978,0.2681332 0.01636,0 0.02978,0.0067 0.02978,0.014871 0,0.00816 0.01009,0.014871 0.02232,0.014871 0.01559,0 0.02233,0.015698 0.02233,0.052087 0,0.044028 -0.0051,0.052122 -0.03349,0.052316 -0.01842,1.144e-4 -0.04019,0.00512 -0.04837,0.011163 -0.0092,0.00679 -0.01629,0.1876305 -0.01861,0.4759868 -0.0032,0.3952635 -3.94e-4,0.465049 0.01755,0.465049 0.01172,0 0.04522,0.022563 0.07444,0.050123 0.05598,0.052801 0.07087,0.1168506 0.0323,0.1388806 -0.01259,0.00718 -0.02497,0.050821 -0.03128,0.1102203 -0.0097,0.091783 -0.0083,0.098868 0.02082,0.1065007 0.02852,0.00744 0.03127,0.018775 0.03127,0.1284083 0,0.115916 -0.01902,0.2339819 -0.04641,0.2878751 -0.0072,0.014201 -0.01312,0.05886 -0.01312,0.09921 0,0.044388 -0.0071,0.075753 -0.01811,0.079406 -0.01084,0.00355 -0.0166,0.028124 -0.0144,0.06104 0.0036,0.050099 -1.97e-4,0.055787 -0.03996,0.063743 -0.0381,0.00762 -0.04491,0.016922 -0.05327,0.07272 -0.01259,0.084045 0.005,0.2156283 0.029,0.2156283 0.01975,0 0.03681,0.076755 0.03707,0.1671191 7.9e-5,0.030531 0.01112,0.082901 0.02453,0.1163895 0.01855,0.046292 0.02205,0.085595 0.01478,0.1639992 -0.0094,0.1026905 -0.0094,0.1031124 0.02773,0.1031124 0.02323,0 0.03731,0.0084 0.03731,0.022327 0,0.012268 0.01009,0.022326 0.02233,0.022326 0.01227,0 0.02232,0.00596 0.02232,0.013253 0,0.0073 0.01676,0.017475 0.03721,0.022602 0.02927,0.00734 0.03721,0.018774 0.03721,0.053699 0,0.024377 -0.0068,0.044356 -0.01488,0.044356 -0.0081,0 -0.01488,0.00931 -0.01488,0.020668 0,0.011715 0.02189,0.024771 0.05059,0.030137 0.0278,0.00521 0.05878,0.019368 0.06879,0.031438 0.01003,0.01207 0.02741,0.02193 0.0387,0.02193 0.01196,0 0.0205,0.015541 0.0205,0.037196 0,0.020473 0.0068,0.037197 0.01488,0.037197 0.0081,0 0.01488,0.016488 0.01488,0.036604 0,0.020157 0.01278,0.048604 0.02843,0.063245 0.02394,0.022405 0.02852,0.048453 0.02904,0.1642792 3.94e-4,0.1106069 -0.0036,0.137654 -0.02099,0.137654 -0.01187,0 -0.02157,0.00718 -0.02157,0.015935 0,0.00876 -0.01009,0.025994 -0.02233,0.038262 -0.01227,0.012268 -0.02232,0.048631 -0.02232,0.080786 0,0.052438 -0.0039,0.058462 -0.03721,0.058462 -0.02046,0 -0.03721,-0.00583 -0.03721,-0.013018 0,-0.00718 -0.02008,-0.01704 -0.04463,-0.021931 -0.03681,-0.00738 -0.04461,-0.016173 -0.04445,-0.050224 3.9e-4,-0.076922 0.01589,-0.1082639 0.05361,-0.1082639 0.02161,0 0.03546,-0.00872 0.03546,-0.022325 0,-0.012268 -0.01009,-0.022327 -0.02233,-0.022327 -0.0381,0 -0.02801,-0.071245 0.01117,-0.078787 0.02872,-0.00552 0.02765,-0.00675 -0.0074,-0.00848 -0.02253,-0.00119 -0.04093,-0.00872 -0.04093,-0.016923 0,-0.0082 -0.01262,-0.014871 -0.028,-0.014871 -0.01594,0 -0.03273,-0.014475 -0.03893,-0.033488 -0.0086,-0.026705 -0.0132,-0.017908 -0.02233,0.043605 -0.0063,0.042399 -0.02561,0.09701 -0.04293,0.1213516 -0.0211,0.029622 -0.03152,0.066847 -0.03152,0.1126501 0,0.058469 -0.0042,0.06839 -0.02974,0.06839 -0.03862,0 -0.03759,0.010689 0.0092,0.098233 0.04814,0.090036 0.07587,0.1635928 0.108851,0.2886877 l 0.02548,0.096733 0.01057,-0.089291 c 0.02261,-0.1904324 0.108766,-0.292677 0.156257,-0.1853873 0.02181,0.049262 0.01613,0.1042917 -0.02414,0.2347155 -0.02074,0.067203 -0.03088,0.080395 -0.06724,0.08767 -0.03542,0.00713 -0.0411,0.013961 -0.03286,0.039947 0.03874,0.122247 0.05456,0.2221604 0.03993,0.2521425 -0.02296,0.047023 -0.03277,0.7113412 -0.014,0.9443832 0.01756,0.217909 -0.0039,0.697269 -0.04238,0.951612 -0.02859,0.188487 -0.02797,0.197342 0.01455,0.197342 0.03435,0 0.03573,0.0046 0.04588,0.153297 0.01269,0.186323 0.0015,0.263389 -0.03831,0.263389 -0.01546,0 -0.02812,0.0068 -0.02812,0.01488 0,0.0081 0.01009,0.01488 0.02232,0.01488 0.01558,0 0.02233,0.0157 0.02233,0.05208 0,0.02862 0.0053,0.05208 0.01191,0.05208 0.01409,0 0.04806,0.19868 0.05216,0.305074 l 0.0028,0.07441 -0.09179,0.0044 c -0.07799,0.0036 -0.09284,3.91e-4 -0.09872,-0.02232 -0.004,-0.01471 -0.0077,0.16581 -0.0086,0.401126 -0.0015,0.354746 -0.0052,0.427849 -0.02244,0.427849 -0.0312,0 -0.03827,0.05538 -0.02185,0.171138 0.0081,0.05729 0.01818,0.241453 0.02236,0.409243 0.0041,0.167793 0.01377,0.311434 0.02133,0.319214 0.02485,0.02564 0.01546,0.08492 -0.01471,0.0928 -0.02218,0.0059 -0.02983,0.02429 -0.03478,0.08418 -0.0036,0.04416 0.0012,0.08937 0.01125,0.106505 0.0258,0.04359 0.05777,0.393981 0.04584,0.502384 -0.0056,0.05108 -0.0155,0.143108 -0.02194,0.204497 -0.0065,0.06139 -0.02304,0.133413 -0.03688,0.160058 -0.06198,0.119244 -0.329142,0.211979 -0.610711,0.211979 -0.146296,0 -0.406568,-0.0299 -0.708323,-0.08142 -0.06957,-0.01187 -0.225927,-0.02753 -0.347453,-0.03483 L 13.532304,15.40515 13.3961,15.33564 c -0.152331,-0.07774 -0.183197,-0.08157 -0.374306,-0.04642 -0.06548,0.01203 -0.169281,0.02908 -0.230669,0.03782 -0.06139,0.0087 -0.135051,0.02375 -0.163695,0.0333 -0.02998,0.01003 -0.117806,0.01574 -0.206963,0.01357 -0.136037,-0.0032 -0.158666,-2.72e-4 -0.18602,0.02517 -0.07004,0.06514 -0.383935,0.142452 -0.644203,0.158644 -0.165695,0.0103 -0.166638,0.01057 -0.171217,0.04943 -0.0024,0.0215 0.002,0.05756 0.01003,0.08017 0.02249,0.06342 -0.01866,0.121218 -0.09062,0.127375 -0.07973,0.0068 -0.10905,-0.03531 -0.109487,-0.157326 l -3.12e-4,-0.09301 h -0.126174 c -0.171153,0 -0.239512,-0.02748 -0.262958,-0.105735 -0.01468,-0.049 -0.02366,-0.05797 -0.05807,-0.05797 -0.04748,0 -0.05876,-0.02162 -0.05876,-0.112828 0,-0.04852 0.0059,-0.06575 0.02232,-0.06575 0.03215,0 0.02828,-0.01933 -0.02765,-0.138817 -0.07769,-0.165915 -0.0988,-0.214373 -0.09933,-0.228033 -0.0015,-0.04112 -0.06558,-0.08549 -0.137925,-0.09569 -0.04256,-0.006 -0.08797,-0.01514 -0.100925,-0.02036 -0.01913,-0.0077 -0.02233,-7.66e-4 -0.01692,0.03582 0.0062,0.04218 0.0036,0.04529 -0.03968,0.04529 -0.04156,0 -0.04634,-0.0045 -0.04634,-0.04465 0,-0.03176 0.0075,-0.04528 0.02604,-0.04683 0.0381,-0.0032 -0.142172,-0.02425 -0.212063,-0.02477 -0.03273,-2.35e-4 -0.05115,0.0028 -0.04093,0.007 0.0102,0.0041 0.01862,0.01699 0.01862,0.02858 0,0.01159 0.0069,0.02106 0.0155,0.02106 0.01602,0 0.02315,0.0051 0.09239,0.06649 0.03562,0.03155 0.05059,0.0351 0.115332,0.02745 l 0.07439,-0.0088 v 0.04868 c 0,0.0473 -0.0015,0.04842 -0.05208,0.04021 -0.03929,-0.0064 -0.05208,-0.0032 -0.05208,0.01293 0,0.01191 0.01409,0.02139 0.03183,0.02139 0.02943,0 0.03116,0.0055 0.02308,0.074 -0.0048,0.04104 -0.0024,0.07789 0.0053,0.08272 0.0077,0.0048 0.01413,0.01885 0.01413,0.03124 0,0.026 0.0351,0.06503 0.05846,0.06503 0.0087,0 0.01594,0.01673 0.01594,0.03721 0,0.02316 0.0084,0.03721 0.02233,0.03721 0.01487,0 0.02232,0.01488 0.02232,0.04463 0,0.03482 -0.0066,0.04465 -0.02994,0.04465 -0.02659,0 -0.02886,0.0067 -0.02043,0.05953 0.009,0.05617 0.0074,0.05953 -0.02789,0.05953 -0.03294,0 -0.03862,-0.008 -0.04746,-0.06697 -0.0066,-0.04369 -0.01747,-0.06697 -0.03144,-0.06697 -0.01179,0 -0.02143,-0.0092 -0.02143,-0.02059 0,-0.01131 -0.01432,-0.02433 -0.0318,-0.0289 -0.02797,-0.0072 -0.03065,-0.01546 -0.02229,-0.0678 0.0055,-0.03444 0.0032,-0.06337 -0.0054,-0.06871 -0.01917,-0.01187 -0.01953,-0.08187 -3.94e-4,-0.08187 0.01566,0 0.0028,-0.0916 -0.01464,-0.104173 -0.0056,-0.0041 -0.01413,-0.01746 -0.01881,-0.02978 -0.0046,-0.01227 -0.009,0.0028 -0.0095,0.03369 -7.88e-4,0.0308 -0.0094,0.06971 -0.01976,0.08648 -0.01562,0.02561 -0.01448,0.03353 0.0074,0.04981 0.02773,0.02058 0.03613,0.08302 0.01117,0.08302 -0.0081,0 -0.01487,0.0094 -0.01487,0.02126 0,0.01168 -0.01009,0.03135 -0.02249,0.04373 -0.01238,0.01238 -0.02666,0.05303 -0.0318,0.09035 -0.0085,0.06229 -0.0068,0.06788 0.02249,0.06788 0.02433,0 0.0318,0.0091 0.0318,0.03889 0,0.03768 -0.002,0.03857 -0.06696,0.02883 -0.06097,-0.0091 -0.06697,-0.0072 -0.06697,0.02063 0,0.0228 -0.0094,0.03069 -0.0372,0.03069 -0.03026,0 -0.03752,-0.0076 -0.03897,-0.04093 l -0.0016,-0.04092 -0.0095,0.04464 c -0.0088,0.04141 -0.01542,0.04535 -0.09124,0.05433 -0.1579248,0.0187 -0.2828425,0.01455 -0.2921515,-0.0097 -0.011715,-0.03052 -0.030175,-0.02804 -0.038892,0.0052 -0.00828,0.03163 -0.092716,0.04989 -0.2492393,0.05384 -0.053203,0.0012 -0.1067767,0.0068 -0.1190559,0.01196 -0.061195,0.02604 -0.26381,0.05482 -0.3800652,0.05395 -0.1044929,-7.64e-4 -0.133457,0.004 -0.1439808,0.02257 -0.014516,0.02595 -0.086101,0.0327 -0.086101,0.0081 0,-0.01045 -0.00899,-0.01062 -0.027887,-3.95e-4 -0.015344,0.0082 -0.080637,0.01451 -0.1450974,0.01397 -0.064457,-3.95e-4 -0.1607252,0.0067 -0.2139243,0.01597 -0.1577392,0.02761 -0.3569665,0.04912 -0.4762157,0.05134 -0.061385,0.0012 -0.1262388,0.01034 -0.1441151,0.02043 -0.032069,0.0181 -0.0557,0.01929 -0.1487025,0.0076 z m 2.6096396,-0.408796 c -0.0047,-0.01187 -0.0083,-0.0083 -0.009,0.009 -7.88e-4,0.0157 0.0028,0.02449 0.0078,0.01953 0.0049,-0.0048 0.0054,-0.01779 0.0012,-0.02852 z m -0.4827348,-0.06417 c -0.00394,-0.02046 -0.00965,-0.03721 -0.012819,-0.03721 -0.00315,0 -0.00572,0.01672 -0.00572,0.03721 0,0.02046 0.00576,0.03721 0.01282,0.03721 0.00706,0 0.00962,-0.01672 0.00572,-0.03721 z m 0.3907228,-0.02233 c -0.04065,-0.01748 -0.05208,-0.01748 -0.05208,0 0,0.0081 0.01842,0.0144 0.04092,0.01384 0.03624,-7.66e-4 0.03756,-0.0024 0.01117,-0.01384 z M 9.5471494,15.162838 c 0,-0.0082 -0.0067,-0.01488 -0.014871,-0.01488 -0.00816,0 -0.014871,0.0068 -0.014871,0.01488 0,0.0081 0.0067,0.01488 0.014871,0.01488 0.0082,0 0.014871,-0.0068 0.014871,-0.01488 z m 0.4174281,-0.342277 c 0.02233,0 0.02902,-0.0103 0.02902,-0.04463 0,-0.03471 -0.0066,-0.04465 -0.02978,-0.04465 -0.01652,0 -0.02975,0.01003 -0.02975,0.02233 0,0.01227 -0.01223,0.02233 -0.02717,0.02233 -0.02174,0 -0.02588,0.0089 -0.02066,0.04451 0.0053,0.03613 -7.4e-5,0.04712 -0.0286,0.05837 -0.03428,0.01348 -0.03393,0.01413 0.01321,0.02433 0.0385,0.0083 0.04894,0.01842 0.05118,0.04952 0.0016,0.02151 0.0052,3.96e-4 0.0081,-0.0465 0.0045,-0.07309 0.0096,-0.08558 0.03439,-0.08558 z m -0.216525,-0.04463 c -0.005,-0.0082 -0.0159,-0.01488 -0.02406,-0.01488 -0.0082,0 -0.01073,0.0068 -0.0057,0.01488 0.0051,0.0081 0.0159,0.01488 0.0241,0.01488 0.0081,0 0.01073,-0.0068 0.0056,-0.01488 z m 0.111614,-0.02978 c 0,-0.01638 -0.0028,-0.02974 -0.0057,-0.02974 -0.0032,0 -0.0092,0.01341 -0.01348,0.02974 -0.0043,0.01637 -0.0016,0.02978 0.0057,0.02978 0.0074,0 0.01348,-0.0134 0.01348,-0.02978 z m -8.3337241,-0.03721 c 0,-0.01227 -0.0067,-0.02232 -0.014871,-0.02232 -0.00816,0 -0.014871,0.01009 -0.014871,0.02232 0,0.01227 0.0067,0.02233 0.014871,0.02233 0.00816,0 0.014871,-0.01009 0.014871,-0.02233 z m 0.1180067,-0.42784 c 3.946e-4,-0.0062 -0.012346,-0.01117 -0.028715,-0.01117 -0.033843,0 -0.038537,0.02154 -0.011163,0.05116 0.015541,0.01684 0.020274,0.01613 0.028715,-0.0043 0.00555,-0.01348 0.010571,-0.02951 0.011163,-0.03566 z M 15.328802,8.3479862 c -0.0057,-0.041449 -0.01716,-0.075362 -0.02544,-0.075362 -0.0084,0 -0.01045,0.011479 -0.0045,0.026033 0.0057,0.014318 0.01409,0.051361 0.01851,0.08231 0.0043,0.030925 0.01112,0.053136 0.01495,0.049317 0.004,-0.00394 0.0024,-0.040861 -0.0036,-0.08231 z m 0.334704,-0.1497715 c 0,-0.016369 -0.0068,-0.02974 -0.01488,-0.02974 -0.0081,0 -0.01488,0.013412 -0.01488,0.02974 0,0.016369 0.0068,0.029781 0.01488,0.029781 0.0082,0 0.01488,-0.013371 0.01488,-0.029781 z M 15.286749,8.0763741 c -0.0047,-0.011873 -0.0083,-0.00836 -0.009,0.00899 -7.66e-4,0.015698 0.0028,0.024494 0.0078,0.019525 0.0048,-0.00493 0.0055,-0.01779 0.0012,-0.028521 z m 0.04936,-0.3097236 c 0,-0.00816 -0.01341,-0.014871 -0.02978,-0.014871 -0.01636,0 -0.02974,0.0067 -0.02974,0.014871 0,0.00816 0.01341,0.014871 0.02974,0.014871 0.01637,0 0.02978,-0.0067 0.02978,-0.014871 z M 0.5970793,3.9123051 c 0.0138851,0 0.021063,-0.016527 0.0210244,-0.048366 -3.937e-5,-0.026586 0.0112808,-0.080021 0.0251261,-0.1187168 0.0138851,-0.038696 0.0196826,-0.075525 0.0128983,-0.081848 -0.006743,-0.00631 -0.0152645,-0.00315 -0.018934,0.0071 -0.00355,0.010212 -0.0228382,0.018617 -0.0426081,0.018617 -0.0284395,0 -0.0359736,-0.00777 -0.0359736,-0.037196 0,-0.020473 0.00718,-0.037197 0.0159359,-0.037197 0.0167244,0 0.0584648,-0.036408 0.0584648,-0.051024 0,-0.00469 -0.0100585,-0.00848 -0.0223256,-0.00848 -0.0122676,0 -0.0223265,-0.012622 -0.0223265,-0.028046 0,-0.016094 -0.0134894,-0.031556 -0.0316735,-0.036328 -0.0306877,-0.008 -0.0314375,-0.00481 -0.0243774,0.1054792 0.004225,0.065628 0.0144761,0.1161409 0.0242187,0.1193951 0.009312,0.00315 0.0169217,0.021812 0.0169217,0.041606 0,0.026784 -0.008559,0.036486 -0.0334883,0.037986 -0.0331333,0.00198 -0.0330936,0.00198 0.001577,0.00868 0.0323449,0.00615 0.0343571,0.011913 0.026468,0.0761 -0.004691,0.038182 -0.004809,0.061084 -2.7213e-4,0.050857 0.004533,-0.010212 0.0177498,-0.018617 0.0293469,-0.018617 z M 0.52887588,3.3538708 c 0,-0.029899 0.009193,-0.039405 0.0449517,-0.046568 0.0531601,-0.01061 0.0742539,-0.034909 0.0303326,-0.034909 -0.0168424,0 -0.0306491,-0.0067 -0.0306491,-0.014871 0,-0.0082 -0.006703,-0.014871 -0.0148708,-0.014871 -0.008162,0 -0.0148708,0.010058 -0.0148708,0.022325 0,0.012268 -0.005644,0.022325 -0.0125036,0.022325 -0.0129776,0 -0.0470341,0.065167 -0.0470341,0.089994 0,0.00781 0.0100585,0.0142 0.0223265,0.0142 0.0139635,0 0.0223256,-0.014081 0.0223256,-0.037591 z M 0.70640853,3.1686821 c 3.9448e-4,-0.020235 0.009273,-0.072125 0.0193276,-0.1153364 0.016251,-0.069994 0.022483,-0.078561 0.056947,-0.078561 0.034514,0 0.037986,-0.00481 0.032148,-0.044647 -0.00516,-0.035303 -0.014003,-0.044644 -0.042067,-0.044644 -0.030649,0 -0.0355,-0.0071 -0.0355,-0.052087 0,-0.043745 0.00536,-0.052273 0.033488,-0.053258 0.018422,-7.888e-4 0.025127,-0.00453 0.014871,-0.00868 -0.010453,-0.00422 -0.018617,-0.033094 -0.018617,-0.065793 0,-0.052249 0.00394,-0.058287 0.037196,-0.058287 0.020472,0 0.038182,0.00836 0.039405,0.018617 0.00198,0.016922 0.026349,-0.1398392 0.027178,-0.1748622 1.933e-4,-0.00816 -0.00355,-0.039993 -0.00872,-0.070689 -0.00587,-0.036369 -0.00315,-0.055802 0.00744,-0.055802 0.00907,0 0.016528,-0.01558 0.016528,-0.034633 0,-0.030017 -0.00597,-0.033765 -0.044647,-0.028084 -0.028479,0.00419 -0.044817,0.015384 -0.045117,0.030925 -0.00119,0.053579 -0.12427835,0.1508483 -0.19111727,0.1508483 -0.0246135,0 -0.0489195,0.00675 -0.054004,0.014949 -0.005087,0.00824 -0.0116756,0.066823 -0.0145951,0.1302147 -0.002767,0.063392 -0.001973,0.1035424 0.001973,0.089216 0.004889,-0.017197 0.0222075,-0.026033 0.0509386,-0.026033 0.036526,0 0.0435543,0.00601 0.0435543,0.037196 0,0.031161 -0.007022,0.037196 -0.0432429,0.037196 -0.0407735,0 -0.0422611,0.00198 -0.0260335,0.037076 0.00947,0.020393 0.0289136,0.037157 0.0432479,0.037196 0.0178291,7.89e-5 0.0260335,0.011833 0.0260335,0.037315 0,0.023154 -0.008439,0.037196 -0.0223256,0.037196 -0.0122676,0 -0.0223256,0.010058 -0.0223256,0.022325 0,0.012268 0.006703,0.022325 0.0148708,0.022325 0.008162,0 0.0148708,0.016724 0.0148708,0.037196 0,0.023154 -0.008439,0.037197 -0.0223256,0.037197 -0.0123855,0 -0.0223266,0.013214 -0.0223266,0.029781 0,0.016369 -0.00718,0.02974 -0.0159359,0.02974 -0.008758,0 -0.005405,0.010532 0.007448,0.02339 0.0128586,0.012859 0.0233906,0.035146 0.0233906,0.049507 0,0.02055 0.00951,0.024731 0.0446433,0.019564 0.0405613,-0.00597 0.0447413,-0.00277 0.0456924,0.036052 7.8882e-4,0.037235 0.002767,0.038854 0.0138454,0.012858 0.007022,-0.016369 0.0132533,-0.04631 0.0138453,-0.066531 z M 0.58840148,2.5804197 c 0,-0.029781 0.007448,-0.037196 0.0371964,-0.037196 0.0297813,0 0.0371964,0.00744 0.0371964,0.037196 0,0.029782 -0.007448,0.037197 -0.0371964,0.037197 -0.0297803,0 -0.0371964,-0.00744 -0.0371964,-0.037197 z m 0.43167082,0.00355 c 7.89e-5,-0.042972 0.00438,-0.1233316 0.00959,-0.1785819 0.00608,-0.064291 0.00407,-0.1004504 -0.00564,-0.1004504 -0.00832,0 -0.019525,0.041856 -0.024889,0.093011 -0.029387,0.279229 -0.029189,0.2641492 -0.00355,0.2641492 0.019328,0 0.024258,-0.015896 0.024337,-0.078127 z M 13.163391,1.3153139 c 0,-0.012268 -0.01009,-0.022325 -0.02233,-0.022325 -0.02323,0 -0.02955,0.017592 -0.01242,0.034711 0.01712,0.017119 0.03471,0.010847 0.03471,-0.012385 z M 0.22484764,1.1328195 c -0.0184211,-0.01842 -0.0255605,0.011755 -0.0139238,0.058651 l 0.0122676,0.049432 0.005087,-0.049795 c 0.002767,-0.027374 0.00119,-0.053618 -0.00355,-0.058287 z M 9.2404829,1.1057605 c 0.015226,-0.039689 0.010335,-0.050868 -0.022327,-0.050868 -0.022483,0 -0.028794,0.00666 -0.022325,0.023548 0.00497,0.012937 0.00904,0.029702 0.00904,0.037196 0,0.022563 0.025915,0.015384 0.035618,-0.00987 z M 2.9396993,0.99536669 c 0,-0.00816 0.018421,-0.015659 0.040923,-0.016607 0.025167,-0.00118 0.030925,-0.00433 0.014871,-0.00852 -0.017,-0.00443 -0.026033,-0.0213 -0.026033,-0.048536 0,-0.067814 -0.031793,-0.082782 -0.135023,-0.063585 -0.098659,0.018342 -0.1587569,0.056745 -0.1507853,0.09634 0.00663,0.032858 0.077466,0.036249 0.077466,0.00355 0,-0.016134 0.016526,-0.022325 0.059525,-0.022325 0.053574,0 0.059526,0.00355 0.059526,0.037197 0,0.027296 0.00793,0.037196 0.029781,0.037196 0.016369,0 0.029742,-0.0067 0.029742,-0.014871 z m 0.4732532,-0.067376 c -0.00938,-0.00923 -0.086328,0.011913 -0.086328,0.023706 0,0.00679 0.020432,0.00525 0.045405,-0.00355 0.024968,-0.00872 0.043388,-0.017829 0.040923,-0.020235 z m 8.2221275,0.010926 c 0.05182,0.0099 0.0355,-0.029939 -0.01731,-0.042269 -0.02162,-0.00504 -0.05462,-0.025086 -0.07337,-0.044518 -0.04702,-0.04877 -0.05687,-0.044533 -0.05053,0.021773 0.0043,0.045909 0.0132,0.059948 0.04504,0.071506 0.02469,0.00899 0.04318,0.00911 0.04917,3.511e-4 0.0052,-0.0077 0.02643,-0.010808 0.047,-0.00687 z M 6.8349724,0.91434359 c 0.093361,-0.00157 0.047124,-0.042525 -0.050067,-0.044311 -0.054816,-0.00118 -0.064114,0.00355 -0.069845,0.033488 -0.00597,0.031201 -0.00277,0.033488 0.032463,0.023154 0.021497,-0.00631 0.060848,-0.011833 0.087449,-0.012306 z M 3.4605583,0.89864479 c 0,-0.012268 -0.00277,-0.022325 -0.00582,-0.022325 -0.00315,0 -0.00969,0.010058 -0.014397,0.022325 -0.00473,0.012268 -0.00198,0.022325 0.00583,0.022325 0.00793,0 0.014438,-0.010058 0.014438,-0.022325 z m 0.3436541,-0.035303 c -0.019683,-0.00552 -0.040996,-0.023272 -0.047318,-0.039445 -0.00943,-0.024101 -0.011676,-0.02485 -0.012543,-0.00411 -3.944e-4,0.013924 -0.012779,0.032148 -0.027099,0.04047 -0.020077,0.011676 -0.00895,0.014949 0.048368,0.014161 0.052399,-7.889e-4 0.06381,-0.00398 0.038576,-0.011045 z m 2.9098541,-0.0693485 c -0.00938,-0.024416 -0.053956,-0.030175 -0.053956,-0.00694 0,0.00816 0.010058,0.014871 0.022325,0.014871 0.012268,0 0.022838,0.011715 0.02351,0.026033 7.889e-4,0.016369 0.00401,0.018935 0.00883,0.00694 0.00422,-0.010493 0.00394,-0.028912 -7.887e-4,-0.040923 z m 4.6784085,-0.04681 c 0,-0.018894 -0.0032,-0.018814 -0.02232,3.943e-4 -0.01227,0.012268 -0.02233,0.025954 -0.02233,0.030372 0,0.00441 0.01009,0.00419 0.02233,-3.945e-4 0.01227,-0.00469 0.02232,-0.018381 0.02232,-0.0303718 z m -0.127746,3.943e-4 c 0.0081,-0.021261 0.006,-0.021812 -0.01699,-0.00422 -0.01452,0.011123 -0.02919,0.02209 -0.03258,0.024416 -0.0036,0.00237 0.0042,0.00422 0.01699,0.00422 0.01278,0 0.02741,-0.011005 0.03258,-0.024416 z M 8.293061,0.48026254 c -0.00493,-0.004929 -0.01779,-0.005484 -0.028519,-0.00119 -0.011873,0.00473 -0.00836,0.00828 0.00899,0.008995 0.015698,7.8882e-4 0.024495,-0.002767 0.019525,-0.007814 z m 1.886561,-0.18446717 c 0.005,-0.008162 0.002,-0.0148708 -0.0066,-0.0148708 -0.0087,0 -0.01578,0.006703 -0.01578,0.0148708 0,0.008201 0.0028,0.0148708 0.0066,0.0148708 0.0036,0 0.01069,-0.006703 0.01578,-0.0148708 z m 0.09674,-0.0744086 c 0.01807,-0.0116755 0.01589,-0.0144761 -0.01117,-0.0146338 -0.01842,-1.1832e-4 -0.03349,0.006476 -0.03349,0.0146338 0,0.0186572 0.01578,0.0186572 0.04464,0 z M -0.02057324,15.793787 c 7.8882e-4,-0.01731 0.004255,-0.02086 0.008995,-0.009 0.004294,0.01073 0.003947,0.02359 -0.00119,0.02852 -0.004929,0.0048 -0.00844,-0.004 -0.007814,-0.01953 z m 0.0491873,-0.176468 c -0.0162512,-0.04229 0.00119,-0.0752 0.0427778,-0.07999 0.0377091,-0.0043 0.0407934,-7.66e-4 0.0407934,0.04836 0,0.04687 -0.004423,0.05308 -0.0376694,0.05308 -0.020708,0 -0.0413734,-0.0095 -0.0459017,-0.02146 z M 12.568124,15.586674 c 0,-0.0314 0.0069,-0.03721 0.04464,-0.03721 0.03771,0 0.04465,0.0059 0.04465,0.03721 0,0.03144 -0.0069,0.03721 -0.04465,0.03721 -0.03771,0 -0.04464,-0.0059 -0.04464,-0.03721 z m -2.351298,-0.133938 c 0,-0.0314 0.0069,-0.03721 0.04464,-0.03721 0.03771,0 0.04464,0.0059 0.04464,0.03721 0,0.0314 -0.0069,0.03721 -0.04464,0.03721 -0.03771,0 -0.04464,-0.0059 -0.04464,-0.03721 z M 0.07325788,15.408966 c -0.0162116,-0.04229 0.00119,-0.0752 0.0427778,-0.07999 0.0377091,-0.0043 0.0407973,-7.67e-4 0.0407973,0.04836 0,0.04687 -0.004423,0.05308 -0.0376695,0.05308 -0.020708,0 -0.0413735,-0.0095 -0.0459017,-0.02147 z M 10.157296,15.363448 c 0,-0.02978 0.0074,-0.03721 0.03721,-0.03721 0.02978,0 0.03721,0.0074 0.03721,0.03721 0,0.02978 -0.0074,0.03721 -0.03721,0.03721 -0.02974,0 -0.03721,-0.0074 -0.03721,-0.03721 z M 0.88603531,15.169984 c 0,-0.05021 0.00277,-0.05373 0.040923,-0.04935 0.034515,0.004 0.040923,0.01172 0.040923,0.04935 0,0.03764 -0.00644,0.04538 -0.040923,0.04935 -0.037986,0.0043 -0.040923,7.65e-4 -0.040923,-0.04935 z m -0.61015008,-0.07441 c 0,-0.04795 0.00355,-0.05208 0.0446471,-0.05208 0.0411018,0 0.0446433,0.0041 0.0446433,0.05208 0,0.04796 -0.00355,0.05208 -0.0446433,0.05208 -0.0411057,0 -0.0446471,-0.0041 -0.0446471,-0.05208 z m 0.62502858,-0.595265 v -0.05208 h 0.074409 c 0.072002,0 0.074409,0.0015 0.074409,0.04269 0,0.03778 -0.00644,0.04376 -0.055808,0.05192 -0.089761,0.01484 -0.093011,0.01337 -0.093011,-0.04254 z m -0.89289749,-1.17565 c 0,-0.02729 0.007923,-0.03721 0.0297803,-0.03721 0.0218128,0 0.0297803,0.0099 0.0297803,0.03721 0,0.02729 -0.007923,0.03721 -0.0297803,0.03721 -0.0218128,0 -0.0297803,-0.0099 -0.0297803,-0.03721 z m 0.32739479,-0.05812 c 0,-0.03167 0.008559,-0.03699 0.0744086,-0.04605 0.0658412,-0.009 0.0744085,-0.01436 0.0744085,-0.04605 0,-0.02914 0.007617,-0.03582 0.0410225,-0.03582 0.0225625,0 0.064184,0.0067 0.0924896,0.01474 0.0411484,0.01179 0.0539525,0.0103 0.0638845,-0.0074 0.006823,-0.01223 0.0221282,-0.02221 0.0340011,-0.02221 0.011872,0 0.021575,-0.0068 0.021575,-0.01488 0,-0.0081 0.01846,-0.01488 0.041011,-0.01488 0.085718,0 0.1034674,0.164255 0.019052,0.17627 -0.02209,0.0032 -0.043609,-0.0051 -0.055507,-0.02147 -0.01069,-0.01464 -0.019447,-0.01861 -0.019447,-0.0088 0,0.0097 -0.0160143,0.01771 -0.0356186,0.01771 -0.0196043,0 -0.0394684,0.01009 -0.0441781,0.02232 -0.009034,0.02351 -0.0767511,0.03104 -0.0897604,0.01003 -0.004185,-0.0068 -0.0430811,-0.0072 -0.0864471,-0.0012 -0.12613217,0.01795 -0.1309287,0.01712 -0.1309287,-0.02241 z M 0.29339401,13.03929 c 0.003947,-0.03361 0.0132136,-0.04298 0.0468329,-0.04683 0.0382217,-0.0043 0.0415827,-0.0012 0.0371964,0.03721 -0.003947,0.03361 -0.0132137,0.04298 -0.0468329,0.04683 -0.0382217,0.0043 -0.0415828,0.0012 -0.0371964,-0.03721 z m 0.3396504,-0.369416 c 0,-0.02974 0.007448,-0.03721 0.0371964,-0.03721 0.0297803,0 0.0371964,0.0074 0.0371964,0.03721 0,0.02978 -0.007448,0.03721 -0.0371964,0.03721 -0.0297813,0 -0.0371964,-0.0074 -0.0371964,-0.03721 z M 0.39493652,12.28295 c 0,-0.02978 0.007448,-0.03721 0.0371964,-0.03721 0.0297803,0 0.0371964,0.0074 0.0371964,0.03721 0,0.02974 -0.007448,0.03721 -0.0371964,0.03721 -0.0297803,0 -0.0371964,-0.0074 -0.0371964,-0.03721 z m 0.35050539,-0.580342 c -0.012188,-0.08138 -0.00406,-0.09677 0.051118,-0.09677 0.041839,0 0.042704,0.0015 0.042704,0.08185 0,0.07984 -0.00119,0.08186 -0.041891,0.08186 -0.038221,0 -0.042769,-0.0059 -0.05193,-0.06693 z m -0.15704103,-0.04468 c 0,-0.02978 0.007448,-0.03721 0.0371964,-0.03721 0.0297813,0 0.0371964,0.0074 0.0371964,0.03721 0,0.02978 -0.007448,0.03721 -0.0371964,0.03721 -0.0297803,0 -0.0371964,-0.0074 -0.0371964,-0.03721 z m 0.0892873,-0.119056 c 0,-0.02974 0.007448,-0.03721 0.0371964,-0.03721 0.029782,0 0.037197,0.0074 0.037197,0.03721 0,0.02978 -0.00744,0.03721 -0.037197,0.03721 -0.0297417,0 -0.0371964,-0.0074 -0.0371964,-0.03721 z m 0,-0.119052 c 0,-0.02974 0.007448,-0.03721 0.0371964,-0.03721 0.029782,0 0.037197,0.0074 0.037197,0.03721 0,0.02979 -0.00744,0.03721 -0.037197,0.03721 -0.0297417,0 -0.0371964,-0.0074 -0.0371964,-0.03721 z m 0.13393843,-0.372046 c 0,-0.02978 0.00744,-0.03721 0.037196,-0.03721 0.029781,0 0.037196,0.0074 0.037196,0.03721 0,0.02978 -0.00744,0.03721 -0.037196,0.03721 -0.029742,0 -0.037196,-0.0074 -0.037196,-0.03721 z M 0.30565015,6.6877555 c 0,-0.061513 0.003154,-0.066968 0.0371964,-0.066968 0.0341588,0 0.0371964,0.00544 0.0371964,0.066968 0,0.06151 -0.003154,0.066966 -0.0371964,0.066966 -0.0341588,0 -0.0371964,-0.00544 -0.0371964,-0.066966 z M 15.400926,5.1993498 c -0.0047,-0.012425 -0.004,-0.059289 0.0015,-0.1041735 0.0092,-0.073682 0.01372,-0.081607 0.04634,-0.081607 0.03483,0 0.03613,0.00394 0.03613,0.1041694 0,0.1015425 -7.66e-4,0.1041733 -0.03768,0.1041733 -0.02071,0 -0.04157,-0.01014 -0.04634,-0.022563 z m 0.203053,-1.2721425 c 0,-0.037709 0.0059,-0.044644 0.03721,-0.044644 0.03144,0 0.03721,0.00694 0.03721,0.044644 0,0.037709 -0.0059,0.044647 -0.03721,0.044647 -0.0314,0 -0.03721,-0.00694 -0.03721,-0.044647 z M 15.931375,2.22326 c 0,-0.047953 0.0036,-0.052087 0.04465,-0.052087 0.04111,0 0.04463,0.00415 0.04463,0.052087 0,0.047953 -0.0035,0.052087 -0.04463,0.052087 -0.04111,0 -0.04465,-0.00415 -0.04465,-0.052087 z M 0.14195073,1.5089404 c 0,-0.029781 0.007448,-0.037196 0.0371964,-0.037196 0.0297813,0 0.0371964,0.00745 0.0371964,0.037196 0,0.029781 -0.007448,0.037196 -0.0371964,0.037196 -0.0297803,0 -0.0371964,-0.00745 -0.0371964,-0.037196 z m 0.38692475,-0.029781 c 0,-0.027296 0.007923,-0.037196 0.0297417,-0.037196 0.0163694,0 0.0297803,-0.0067 0.0297803,-0.014871 0,-0.00816 0.0167244,-0.014871 0.0371964,-0.014871 0.0297813,0 0.0371964,0.00745 0.0371964,0.037196 0,0.023154 -0.008439,0.037196 -0.0223256,0.037196 -0.0122676,0 -0.0223256,0.0067 -0.0223256,0.014871 0,0.0082 -0.0200773,0.014871 -0.0446433,0.014871 -0.0377091,0 -0.0446442,-0.00581 -0.0446442,-0.037196 z m 0.0297417,-0.2306686 c 0,-0.037709 0.005802,-0.044643 0.0371964,-0.044643 0.0313989,0 0.0371964,0.00694 0.0371964,0.044643 0,0.037709 -0.005802,0.044647 -0.0371964,0.044647 -0.0314375,0 -0.0371964,-0.00694 -0.0371964,-0.044647 z M 0.45444753,1.0624739 c 0,-0.02978 0.007448,-0.037196 0.0371964,-0.037196 0.0297803,0 0.0371964,0.00745 0.0371964,0.037196 0,0.029743 -0.007448,0.037196 -0.0371964,0.037196 -0.0297813,0 -0.0371964,-0.00745 -0.0371964,-0.037196 z m 0.20834292,-0.027887 c 0,-0.027689 0.0100976,-0.037354 0.0465057,-0.044647 0.075418,-0.015068 0.087429,-0.011479 0.087429,0.026151 0,0.036486 -0.031281,0.053199 -0.1004539,0.053618 -0.0253622,1.578e-4 -0.0334883,-0.00836 -0.0334883,-0.035146 z M 0.20517691,0.95525529 c -0.0238638,-0.00461 -0.0334883,-0.016922 -0.0334883,-0.042987 0,-0.023667 0.0117945,-0.041633 0.0334883,-0.051014 0.0184211,-0.00797 0.0446789,-0.022523 0.0583626,-0.032305 0.0177111,-0.012701 0.041318,-0.013767 0.0818514,-0.00394 0.0473218,0.011676 0.0577864,0.021183 0.061786,0.056102 0.00355,0.032265 -0.00237,0.043906 -0.0260335,0.050098 -0.0169614,0.00446 -0.0308464,0.014003 -0.0308464,0.021221 0,0.013175 -0.0825099,0.014714 -0.14509728,0.00276 z M 7.7464526,0.75741259 c 0,-0.024573 0.0067,-0.044643 0.014871,-0.044643 0.0082,0 0.014871,-0.010058 0.014871,-0.022325 0,-0.013884 0.014042,-0.022325 0.037196,-0.022325 0.039532,0 0.043133,0.01128 0.027887,0.087429 -0.00781,0.03913 -0.016054,0.046506 -0.052083,0.046506 -0.037631,0 -0.042786,-0.0054 -0.042786,-0.044647 z M 15.693251,0.52674806 c 0,-0.0479525 0.0036,-0.052087 0.04463,-0.052087 0.04111,0 0.04463,0.004146 0.04463,0.052087 0,0.0479523 -0.0036,0.0520871 -0.04463,0.0520871 -0.04111,0 -0.04463,-0.00414 -0.04463,-0.0520871 z M 8.7925568,0.47952144 c -0.012385,-0.0322655 -0.051846,-0.0714493 -0.084652,-0.0840372 -0.017829,-0.006823 -0.024416,-0.0227203 -0.021183,-0.0509505 0.00355,-0.0322259 0.013491,-0.042017 0.045642,-0.0457162 0.033646,-0.003947 0.040924,0.00119 0.040924,0.0279664 0,0.0311222 0.00422,0.0321872 0.089292,0.0225625 0.088269,-0.00998 0.089291,-0.009659 0.089291,0.0275717 0,0.0277691 -0.00978,0.040115 -0.037196,0.0469985 -0.026704,0.006703 -0.037196,0.0193673 -0.037196,0.0449277 0,0.0281637 -0.00785,0.0355789 -0.03767,0.0355789 -0.021497,0 -0.041776,-0.0106897 -0.047227,-0.0248892 z M 15.172392,0.37793171 c 0,-0.0297406 0.0074,-0.0371964 0.03721,-0.0371964 0.02978,0 0.03721,0.007448 0.03721,0.0371964 0,0.0297803 -0.0074,0.0371964 -0.03721,0.0371964 -0.02978,0 -0.03721,-0.007448 -0.03721,-0.0371964 z M 15.589079,0.2291147 c 0,-0.0479486 0.0035,-0.0520831 0.04465,-0.0520831 0.0411,0 0.04463,0.004146 0.04463,0.0520831 0,0.0479525 -0.0036,0.052087 -0.04463,0.052087 -0.04111,0 -0.04465,-0.004146 -0.04465,-0.052087 z"
     id="path5" /></svg>
