<?xml version="1.0" encoding="UTF-8" standalone="no"?>
<svg
   height="16px"
   viewBox="0 0 16 16"
   width="16px"
   version="1.1"
   id="svg1"
   sodipodi:docname="06-splat-symbolic.svg"
   xml:space="preserve"
   inkscape:version="1.3.2 (091e20ef0f, 2023-11-25, custom)"
   xmlns:inkscape="http://www.inkscape.org/namespaces/inkscape"
   xmlns:sodipodi="http://sodipodi.sourceforge.net/DTD/sodipodi-0.dtd"
   xmlns="http://www.w3.org/2000/svg"
   xmlns:svg="http://www.w3.org/2000/svg"><defs
     id="defs1" /><sodipodi:namedview
     id="namedview1"
     pagecolor="#ffffff"
     bordercolor="#000000"
     borderopacity="0.25"
     inkscape:showpageshadow="2"
     inkscape:pageopacity="0.0"
     inkscape:pagecheckerboard="0"
     inkscape:deskcolor="#d1d1d1"
     inkscape:zoom="22.840648"
     inkscape:cx="8.121486"
     inkscape:cy="7.9682504"
     inkscape:window-width="1503"
     inkscape:window-height="965"
     inkscape:window-x="0"
     inkscape:window-y="0"
     inkscape:window-maximized="1"
     inkscape:current-layer="svg1" /><path
     style="fill:#222222;fill-opacity:1;stroke-width:0.0132132"
     d="m 9.8827884,15.114653 -0.028397,-0.01271 -0.042595,-0.139468 C 9.6358862,14.386196 9.2161548,13.166989 9.0587114,12.774949 l -0.015869,-0.03962 -0.036656,0.115915 -0.036656,0.115916 -0.016982,0.456211 -0.016982,0.45622 -0.033501,-0.0037 -0.033501,-0.0037 -0.124648,-0.325308 -0.1246574,-0.325317 -0.056886,-0.02765 -0.056886,-0.02765 -0.063475,0.162863 -0.063475,0.162863 -0.082592,0.06895 -0.082591,0.06895 4.269e-4,0.173934 c 4.176e-4,0.180086 0.017539,0.732456 0.033872,1.095552 l 0.00937,0.208111 h -0.034985 c -0.019302,0 -0.035078,-0.0028 -0.035078,-0.0056 0,-0.0037 -0.023942,-0.140767 -0.053267,-0.305606 -0.072569,-0.408058 -0.1735441,-1.071749 -0.2309498,-1.518504 -0.026169,-0.20349 -0.051689,-0.387057 -0.0567,-0.407937 l -0.00928,-0.03795 -0.058928,0.180013 -0.058928,0.180012 h -0.030438 c -0.016797,0 -0.06199,-0.02097 -0.1005852,-0.04658 l -0.070156,-0.04659 -0.065052,0.02877 c -0.035821,0.01587 -0.1043993,0.0606 -0.1524694,0.09941 -0.04807,0.03888 -0.098432,0.07062 -0.111916,0.07062 -0.013456,0 -0.053174,-0.02821 -0.088345,-0.06273 l -0.063753,-0.06273 -0.09343,0.0958 -0.09344,0.0958 h -0.029696 -0.029696 l -0.058,-0.138615 -0.058,-0.138614 -0.059484,2.69e-4 -0.059484,2.6e-4 -0.1590952,0.26716 -0.1591045,0.267169 -0.037398,0.0046 -0.037491,0.0046 0.00928,-0.0902 c 0.019395,-0.194489 0.063196,-0.574938 0.086396,-0.750459 l 0.024406,-0.184559 -0.02951,-0.058 -0.02951,-0.058 -0.1722171,0.302006 c -0.09472,0.166111 -0.2063115,0.363309 -0.2479691,0.438217 l -0.075724,0.136202 -0.035171,-0.0037 -0.035171,-0.0037 -0.018281,-0.218014 -0.018281,-0.218023 0.025427,-0.194888 c 0.014013,-0.107192 0.024313,-0.194897 0.022921,-0.194897 -0.00186,0 -0.1026824,0.13378 -0.2250291,0.297292 l -0.2224462,0.29733 h -0.029881 -0.029881 v -0.04668 c 0,-0.03601 0.100446,-0.46215 0.1527941,-0.648286 l 0.00742,-0.02775 -0.041574,-0.01726 -0.041574,-0.01726 -0.023757,0.02515 c -0.030438,0.0322 -0.4416599,0.528752 -0.6198718,0.748538 l -0.1365881,0.168469 h -0.031737 -0.031737 v -0.03536 c 0,-0.01949 0.026726,-0.134986 0.059484,-0.25672 0.032665,-0.121725 0.059484,-0.224881 0.059484,-0.229224 0,-0.0046 -0.083055,0.05466 -0.1845222,0.131191 -0.1014854,0.07647 -0.196614,0.139097 -0.2114062,0.139097 h -0.026912 l 5.661e-4,-0.06273 c 3.155e-4,-0.03452 0.011136,-0.120732 0.024035,-0.191585 0.012899,-0.0709 0.019674,-0.128833 0.014941,-0.128833 -0.00464,0 -0.063382,0.02376 -0.1304016,0.0529 -0.067001,0.02905 -0.1394032,0.05289 -0.1608399,0.05289 H 3.800059 v -0.02914 c 0,-0.03137 0.050576,-0.119627 0.3276838,-0.572043 0.097922,-0.159884 0.180337,-0.294796 0.1831302,-0.299816 0.00557,-0.0103 -0.080828,9.28e-4 -0.1210289,0.01624 -0.01457,0.0056 -0.2105803,0.144275 -0.4356744,0.308567 l -0.4092451,0.29873 h -0.036749 -0.036656 l 2.598e-4,-0.0297 c 1.578e-4,-0.01633 0.06199,-0.147616 0.1374823,-0.291706 0.075446,-0.14408 0.1589374,-0.324779 0.1854502,-0.401533 l 0.048256,-0.139571 -0.036192,-0.03777 c -0.019952,-0.02079 -0.042595,-0.03777 -0.050483,-0.03777 -0.00742,0 -0.100279,0.02673 -0.2054485,0.05948 l -0.1912131,0.05948 H 2.9843722 2.809102 v -0.03016 -0.03016 l 0.2973013,-0.307695 0.297292,-0.307685 v -0.0439 -0.04389 l -0.052896,-0.06394 -0.052896,-0.06394 v -0.03703 c 0,-0.02032 0.00928,-0.05837 0.019766,-0.08445 0.01095,-0.02608 0.019859,-0.04918 0.019859,-0.05141 0,-0.0019 -0.1549842,0.04909 -0.3444155,0.11392 -0.1894221,0.06487 -0.3559134,0.117874 -0.3699632,0.117874 h -0.02552 v -0.03266 -0.03267 l 0.2121499,-0.188637 0.2121578,-0.188661 -0.05039,-0.02218 -0.05039,-0.02218 -0.3038437,0.06468 c -0.1671131,0.03564 -0.3237491,0.06496 -0.3480811,0.06515 l -0.044265,4.18e-4 0.00928,-0.07925 0.00928,-0.07925 h -0.017261 c -0.00956,0 -0.1944796,0.03359 -0.4110268,0.0747 -0.2165566,0.04111 -0.3978308,0.07062 -0.4028327,0.0657 -0.00464,-0.0046 -0.00186,-0.04881 0.0065,-0.09747 0.00835,-0.04863 0.014013,-0.08909 0.012528,-0.08992 -0.00186,-8.54e-4 -0.3166592,0.0657 -0.7004959,0.147932 l -0.69787895,0.149499 -0.0165183,-0.0154 -0.0165183,-0.0154 0.0141055,-0.02997 0.0141055,-0.02988 L 1.1051111,10.061162 2.1819919,9.6231398 2.3933981,9.5106856 C 2.6082842,9.3963846 2.6481694,9.3719413 2.6034123,9.3819914 2.5222128,9.4001801 1.3345946,9.5730931 1.2905521,9.5730931 h -0.05336 L 1.2373502,9.5433973 1.237508,9.5137016 1.7871863,9.3221173 2.3368647,9.1305238 1.9885516,9.1230998 C 1.6865454,9.1166038 1.442975,9.0956312 1.2933825,9.0639866 l -0.029696,-0.0065 v -0.02951 -0.02951 L 1.6261887,8.8729592 1.9887001,8.7474573 1.8475152,8.7391054 c -0.077673,-0.00464 -0.2645617,-0.00928 -0.4153606,-0.00993 L 1.1579789,8.7273158 V 8.6905668 8.6538188 L 1.3176216,8.5749388 1.477255,8.4960598 1.294496,8.4877098 C 1.1939758,8.483072 0.90660404,8.4752768 0.65587876,8.4701729 0.40516275,8.4655329 0.1896177,8.4580159 0.17690419,8.4544899 c -0.0131775,-0.00371 -0.023107,-0.019209 -0.023107,-0.036006 v -0.02951 L 0.69223754,8.2586182 C 0.98837883,8.1868843 1.2496368,8.1231404 1.2728181,8.1168857 l 0.042131,-0.011322 -0.00742,-0.092057 -0.00742,-0.092057 h 0.013549 c 0.00742,0 0.2625108,-0.038604 0.5667813,-0.085747 l 0.5532049,-0.085746 0.1025618,-0.042317 c 0.056422,-0.023293 0.098042,-0.046214 0.092521,-0.051132 -0.00557,-0.00464 -0.087324,-0.021808 -0.1818404,-0.037677 C 2.1254585,7.5649152 1.5088439,7.4584558 1.4790089,7.4517742 l -0.029696,-0.0065 V 7.4144689 7.3836595 L 1.7113321,7.3260311 1.9733418,7.2684027 1.8703624,7.1885953 1.7673922,7.1087878 1.7669189,7.079092 1.7664457,7.0493962 H 2.3619298 2.957414 L 2.949064,7.0197002 C 2.944424,7.0033672 2.937835,6.9802602 2.934587,6.9683822 L 2.9290174,6.946853 2.661848,6.8462863 C 2.5149003,6.7909779 2.2876532,6.7048323 2.1568432,6.6548505 L 1.9189985,6.564 1.9143585,6.527437 1.9097185,6.490781 2.0594224,6.499131 c 0.082313,0.00464 0.259699,0.011507 0.3941467,0.01559 0.1344477,0.00371 0.268951,0.010301 0.2988974,0.014013 l 0.054473,0.0065 L 2.7933911,6.476119 2.7798424,6.4170058 2.4482425,6.2820199 C 2.2658546,6.2077804 1.9650084,6.0818517 1.7796974,6.0021741 1.5943771,5.9224595 1.4264103,5.8507349 1.4064213,5.8427077 l -0.036377,-0.01457 v -0.036748 c 0,-0.02023 0.00557,-0.036749 0.011507,-0.036749 0.0065,0 0.1772746,0.023478 0.3798834,0.052246 0.6513956,0.092428 1.0376264,0.1441916 1.2338507,0.1653963 0.1053736,0.011414 0.2145706,0.024221 0.2426517,0.028489 l 0.05104,0.00742 L 3.2180781,5.915393 3.1471791,5.822584 2.9357915,5.660909 C 2.8195234,5.572012 2.6664138,5.4522916 2.5955429,5.3948952 L 2.4667003,5.2905516 v -0.032387 c 0,-0.020416 0.00742,-0.032387 0.020416,-0.032387 0.011229,0 0.099759,-0.00928 0.1966975,-0.020416 l 0.1762446,-0.020416 0.2849032,0.0799 c 0.1566917,0.043987 0.2881606,0.0799 0.292151,0.0799 0.00371,0 -0.043244,-0.064774 -0.1050211,-0.1438854 C 3.2703798,5.1217032 3.2198134,5.0444292 3.2198134,5.0290894 v -0.027933 h 0.044265 c 0.024313,0 0.1436627,0.035635 0.2651277,0.079251 0.1214744,0.043616 0.2247415,0.079251 0.2295021,0.079251 0.00464,0 -0.1234695,-0.132601 -0.284959,-0.2946658 L 3.180151,4.5703266 v -0.035635 -0.035635 h 0.033036 c 0.018189,0 0.135617,0.054009 0.2609611,0.1199431 0.1253533,0.06598 0.3178099,0.1640785 0.4276751,0.2180228 l 0.1997691,0.09807 h 0.05568 c 0.030624,0 0.053731,-0.00464 0.051318,-0.010115 C 4.2058065,4.9194099 4.1239575,4.8409016 4.0258129,4.7505986 3.9277054,4.6603048 3.6824367,4.4227849 3.4807652,4.2228394 L 3.1140964,3.8593165 v -0.036841 -0.036841 h 0.033222 c 0.018282,0 0.1119253,0.039532 0.2081119,0.087788 0.096186,0.048256 0.2930418,0.1433843 0.4374468,0.2113505 l 0.2625572,0.1235809 0.090015,-0.00835 0.090015,-0.00835 0.06366,-0.052524 c 0.034985,-0.028861 0.08055,-0.081756 0.1013091,-0.1175489 L 4.4381111,3.9565238 4.3257961,3.7158209 C 4.147445,3.3335803 4.1050821,3.2357049 4.1050821,3.2058142 v -0.028025 h 0.035728 c 0.021158,0 0.1021536,0.040461 0.198535,0.0991 0.089551,0.054473 0.1658417,0.099091 0.169498,0.099091 0.00371,0 0.00278,-0.071363 -0.00186,-0.158557 l -0.00928,-0.158557 h 0.035264 0.035264 l 0.1905449,0.158557 c 0.1048076,0.087231 0.1960479,0.158557 0.2027665,0.158557 0.0065,0 0.022643,-0.027469 0.035449,-0.060969 L 5.0202878,3.254042 4.9724034,3.0057759 C 4.9460484,2.8692217 4.9245189,2.7450376 4.9245189,2.7297999 v -0.027654 h 0.032944 0.032944 l 0.039904,0.056144 c 0.1015596,0.1429389 0.4258005,0.5881994 0.4498355,0.6177189 l 0.026912,0.033037 -0.01856,-0.046214 C 5.4782898,3.3374037 5.4268789,3.2155024 5.3742895,3.0919587 5.0749188,2.3885674 4.6999538,1.3915219 4.6999538,1.2988803 v -0.036934 h 0.029881 0.029881 l 0.064775,0.1222167 C 5.1101269,1.9233457 5.3903809,2.3925392 5.748373,2.9309147 L 6.0278661,3.3512308 6.031578,3.234814 6.03529,3.1183972 5.9424814,2.6652394 C 5.8914417,2.4159896 5.849682,2.1945054 5.849682,2.1730409 v -0.039069 h 0.032851 0.032851 l 0.041017,0.082591 c 0.1036569,0.2086965 0.4023965,0.761892 0.4058487,0.7515263 0.00186,-0.0065 -0.017168,-0.1406374 -0.042966,-0.2983778 C 6.2935784,2.511972 6.272513,2.3625743 6.272513,2.3377227 v -0.045193 h 0.029881 0.029881 l 0.151532,0.2766534 c 0.083334,0.1521631 0.1525714,0.2755398 0.1538521,0.2741757 9.28e-4,-9.28e-4 -0.026633,-0.1957231 -0.06199,-0.431916 -0.035356,-0.2361837 -0.064588,-0.4457803 -0.064774,-0.46576 l -4.733e-4,-0.036377 h 0.031273 0.031273 L 6.7773584,2.3222165 C 6.8897756,2.5493243 7.0187295,2.794593 7.0639321,2.8672642 l 0.08222,0.132137 -0.00742,-0.072662 C 7.135018,2.8867422 7.1162725,2.7024427 7.0979911,2.5171224 7.0797096,2.3318113 7.0590153,2.129648 7.0520554,2.0678714 7.0446314,2.0060671 7.0392491,1.9392144 7.0392491,1.9192254 L 7.039147,1.8828484 7.075524,1.88373 7.111901,1.8846116 7.2175994,2.0110414 c 0.058185,0.069507 0.1123893,0.1390134 0.1205371,0.154381 0.00835,0.015312 0.073033,0.1872227 0.1441638,0.3819157 0.071177,0.1946838 0.1333434,0.3492782 0.1382618,0.3435432 0.00464,-0.00557 0.022457,-0.042781 0.038976,-0.082313 L 7.6896055,2.7367413 7.6746648,2.5046965 C 7.6519289,2.1520683 7.6227899,1.7861697 7.5939293,1.4910585 7.5795454,1.3446025 7.5678527,1.2059603 7.5678527,1.1829739 v -0.041852 l 0.033686,0.00464 0.033686,0.00464 0.175103,0.3852566 0.1751031,0.3852565 0.085097,0.2654896 c 0.046771,0.1460291 0.088345,0.265499 0.092243,0.265499 0.00371,0 0.027933,-0.1055407 0.053267,-0.2345318 l 0.046029,-0.2345318 0.034243,-0.00371 0.034243,-0.00371 0.020602,0.1097074 c 0.011321,0.06032 0.042224,0.2256509 0.068579,0.3673648 0.026448,0.1417139 0.054473,0.2903599 0.062176,0.3303286 l 0.014105,0.072662 0.052432,-0.1453516 0.052432,-0.1453424 -0.00928,-0.3732761 -0.00928,-0.3732668 h 0.03118 0.031181 l 0.1010678,0.2807737 c 0.055587,0.1544367 0.1292788,0.3620845 0.163763,0.461454 l 0.062732,0.1806618 0.039532,0.029232 0.03944,0.029232 -0.00835,-0.1173726 c -0.00464,-0.064593 -0.012067,-0.2526508 -0.0168,-0.4179822 l -0.00835,-0.3005956 h 0.032758 0.032758 l 0.1061253,0.2213172 c 0.058371,0.1217341 0.1285457,0.2704915 0.1559401,0.3305791 0.027376,0.060134 0.051782,0.107276 0.054195,0.104854 C 9.429094,2.5907958 9.5662978,1.5988635 9.6076399,1.115583 l 0.017725,-0.2072302 0.01921,-0.0193023 0.019209,-0.0192095 0.027469,0.0217151 c 0.015126,0.0119711 0.036749,0.0543804 0.04807,0.0943491 0.081014,0.2858034 0.2067013,0.7978239 0.2676151,1.0900955 0.01819,0.087231 0.03601,0.16857 0.03953,0.1808102 l 0.0065,0.022272 0.08194,-0.056422 c 0.0451,-0.031088 0.133334,-0.087139 0.196113,-0.124648 l 0.114152,-0.068208 h 0.04297 0.04297 l -0.0093,0.3666688 c -0.0056,0.2016623 -0.01466,0.4347557 -0.02116,0.5179874 -0.0065,0.083241 -0.01049,0.1526921 -0.0093,0.1543625 0.0037,0.00371 0.319295,-0.5239544 0.443563,-0.7417174 l 0.09048,-0.158557 0.03489,-0.00464 0.03489,-0.00464 v 0.037955 c 0,0.057164 -0.230003,0.8727965 -0.309281,1.0968048 l -0.01986,0.056144 h 0.0425 0.0425 l 0.224481,-0.2250477 0.224473,-0.2250478 0.03304,0.00371 0.03304,0.00371 0.04185,0.1960015 c 0.02302,0.1077957 0.04436,0.1985442 0.04751,0.201653 0.0065,0.0065 0.256683,-0.2572398 0.550699,-0.5793371 l 0.18996,-0.2081025 h 0.03888 0.03888 l -0.0074,0.076003 c -0.0046,0.04176 -0.01141,0.1394775 -0.01605,0.2171041 l -0.0084,0.1411293 -0.121475,0.2288432 c -0.06682,0.1258545 -0.153508,0.288012 -0.19266,0.3603399 l -0.07118,0.1314966 0.04556,-0.027097 c 0.02506,-0.014941 0.08417,-0.049833 0.131413,-0.07758 0.04724,-0.027747 0.268265,-0.1921411 0.491169,-0.3653325 0.23158,-0.1799287 0.417049,-0.314896 0.432732,-0.314896 h 0.02747 v 0.040832 0.040832 l -0.283576,0.4282319 -0.283586,0.4282226 -0.01448,0.167577 c -0.0084,0.09215 -0.01745,0.1724305 -0.02106,0.1783697 -0.0037,0.00557 -0.0028,0.010765 0.0019,0.010765 0.0046,0 0.182545,-0.1070255 0.395585,-0.2378355 0.213039,-0.1308099 0.399947,-0.2378354 0.415351,-0.2378354 h 0.02803 v 0.038976 c 0,0.021437 -0.0361,0.1178088 -0.08027,0.2141438 l -0.08027,0.1751588 -0.125836,0.1501493 c -0.06923,0.082591 -0.123609,0.1523858 -0.120881,0.1551141 0.0028,0.00278 0.23572,-0.1255204 0.517756,-0.2850146 0.282036,-0.159485 0.527128,-0.2899794 0.544658,-0.2899794 h 0.03183 v 0.034428 0.034429 l -0.115619,0.1284714 c -0.06357,0.07062 -0.162714,0.1803463 -0.220296,0.2437561 l -0.104678,0.1152753 0.03229,0.032294 0.03229,0.032294 0.803651,-0.3368988 C 14.779857,3.964189 15.156214,3.812592 15.174198,3.812592 h 0.03267 l -0.0037,0.036006 -0.0046,0.036006 -0.542013,0.3702787 c -0.637551,0.4355262 -1.279342,0.8870043 -1.241823,0.8735391 0.338068,-0.121298 0.820884,-0.285228 0.840094,-0.285228 h 0.02533 l -2.13e-4,0.036377 -2.14e-4,0.036377 -0.152265,0.1611924 c -0.08371,0.088623 -0.190684,0.2133272 -0.23764,0.2770432 l -0.08538,0.1158414 v 0.050019 0.050019 h 0.218014 0.218022 v 0.032294 c 0,0.061712 -0.06821,0.2174938 -0.122003,0.2785929 -0.02914,0.033129 -0.05039,0.062825 -0.04724,0.06598 0.0028,0.00278 0.198628,-0.02088 0.434357,-0.05336 0.235729,-0.03248 0.450893,-0.059113 0.478149,-0.059206 l 0.04955,-1.114e-4 v 0.030253 0.030253 l -0.602035,0.2363135 c -0.34604,0.1358397 -0.594659,0.240239 -0.584683,0.2455285 0.0096,0.00464 0.05002,0.016704 0.09002,0.025891 l 0.07266,0.016704 0.06932,0.058742 0.06941,0.058742 v 0.037305 0.037305 l -0.07925,0.087417 c -0.04584,0.050576 -0.09568,0.1236737 -0.118217,0.173377 -0.02144,0.047235 -0.05178,0.1039817 -0.06756,0.1260494 -0.01568,0.022086 -0.02645,0.041853 -0.02385,0.04408 0.0028,0.00186 0.135552,0.01095 0.295436,0.019488 0.159874,0.00835 0.343023,0.019209 0.40699,0.023664 l 0.116305,0.00835 -0.0037,0.03415 -0.0037,0.03415 -0.251059,0.091036 c -0.138076,0.050019 -0.253723,0.093477 -0.256989,0.096484 -0.0037,0.00278 0.01457,0.025891 0.03963,0.050947 l 0.04556,0.045472 0.448138,0.066352 c 0.246465,0.03647 0.450114,0.066352 0.452545,0.066352 0.0028,0 0.0046,0.014477 0.0046,0.032109 0,0.019302 -0.0093,0.0348 -0.02311,0.038697 -0.01271,0.00371 -0.238661,0.038048 -0.5021,0.076559 -0.263439,0.038512 -0.478975,0.073497 -0.478975,0.077766 0,0.00464 0.07285,0.030067 0.161861,0.057257 0.08899,0.02719 0.282268,0.097458 0.429429,0.1560514 l 0.267568,0.1065244 v 0.036748 0.036748 l -0.08556,0.050019 c -0.04705,0.027561 -0.08389,0.051689 -0.08185,0.053731 0.0019,0.00186 0.253083,0.05503 0.55791,0.1177717 l 0.554244,0.1140964 0.02385,0.025241 0.02385,0.025241 -0.01875,0.018745 -0.01874,0.018745 -0.731807,0.047235 c -0.402489,0.025984 -0.873399,0.05735 -1.046461,0.069785 l -0.314664,0.022457 -0.06394,0.054566 -0.06394,0.054659 0.06951,0.087231 c 0.08361,0.1049097 0.296726,0.2837062 0.687987,0.5771934 0.160014,0.1200174 0.37258,0.2834467 0.472377,0.3631706 l 0.181441,0.1449524 v 0.03675 0.03675 h -0.02403 c -0.01318,0 -0.204966,-0.06589 -0.426126,-0.1464 -0.322589,-0.1174376 -1.283387,-0.4481933 -1.301947,-0.4481933 -0.0074,0 0.01002,0.042595 0.0825,0.1968274 0.03888,0.082777 0.07081,0.1675495 0.07081,0.1882902 v 0.037676 h -0.198368 -0.198368 l -0.0335,0.076003 c -0.01847,0.04176 -0.05522,0.09827 -0.08176,0.12553 l -0.04825,0.04955 0.04696,0.04955 c 0.0258,0.02728 0.13107,0.138596 0.23391,0.247422 l 0.186991,0.197866 v 0.03666 0.03665 h -0.03109 c -0.01708,0 -0.09588,-0.03062 -0.175075,-0.06802 -0.07916,-0.0374 -0.295204,-0.135115 -0.480023,-0.21714 l -0.336045,-0.149157 -0.03684,0.04872 -0.03684,0.04872 -2.69e-4,0.07266 -2.6e-4,0.07266 0.17166,0.257036 0.17167,0.257035 v 0.03693 0.03693 h -0.02636 c -0.01448,0 -0.159392,-0.06644 -0.322005,-0.147662 l -0.295668,-0.147653 -0.04204,0.01745 c -0.02311,0.0096 -0.03935,0.02431 -0.0361,0.03285 0.0037,0.0084 0.06709,0.101272 0.141863,0.206219 0.0748,0.104947 0.203239,0.291093 0.285469,0.413662 l 0.149518,0.222849 v 0.03814 0.03814 l -0.02311,-3.16e-4 c -0.01271,-1.57e-4 -0.100418,-0.01995 -0.194897,-0.04399 l -0.171772,-0.04371 -0.237835,-0.179372 c -0.13081,-0.09866 -0.239218,-0.178054 -0.240907,-0.176449 -0.0019,0.0019 0.03563,0.09469 0.08287,0.206869 l 0.08593,0.203936 -0.01346,0.145351 c -0.0074,0.0799 -0.01346,0.155745 -0.01355,0.168468 l -3.7e-5,0.02311 h -0.0335 c -0.01949,0 -0.09066,-0.03833 -0.170222,-0.09178 l -0.13674,-0.09178 0.04519,0.114867 c 0.100688,0.255829 0.215935,0.584803 0.215935,0.616401 v 0.03359 l -0.03638,-10e-6 c -0.01995,0 -0.06756,-0.01188 -0.105708,-0.02636 -0.03814,-0.01448 -0.06932,-0.02329 -0.06932,-0.01958 0,0.0037 0.04083,0.103332 0.09076,0.22127 0.197987,0.467635 0.37167,0.929562 0.37167,0.988546 v 0.03851 h -0.03099 -0.031 l -0.103109,-0.155253 c -0.208956,-0.314646 -0.690641,-0.975395 -0.702454,-0.963582 -0.0028,0.0028 8.26e-4,0.120509 0.0084,0.261425 0.0074,0.140916 0.01346,0.302294 0.01355,0.358614 l 1.57e-4,0.102404 h -0.03155 -0.03155 l -0.05651,-0.109012 c -0.122808,-0.236658 -0.269412,-0.49594 -0.374202,-0.661716 -0.115247,-0.182323 -0.363996,-0.566151 -0.37349,-0.576294 -0.0028,-0.0037 -0.02097,0.0095 -0.03981,0.0283 l -0.03424,0.03424 0.05466,0.361454 c 0.03007,0.198804 0.05457,0.377804 0.05447,0.397793 l -2.13e-4,0.03628 h -0.03146 -0.03146 L 10.098862,12.734906 C 10.006156,12.569575 9.9221537,12.422571 9.9122798,12.408243 l -0.01791,-0.02608 v 0.06041 c 0,0.03322 -0.00371,0.105902 -0.00835,0.161499 l -0.00835,0.101095 h -0.032573 c -0.01791,0 -0.06134,-0.02107 -0.096428,-0.04686 l -0.063753,-0.04686 0.0065,0.04352 c 0.00371,0.02394 0.021066,0.212984 0.039347,0.420102 0.03183,0.359969 0.095231,0.96593 0.1767549,1.690341 l 0.037862,0.335989 -0.015126,0.01438 -0.015126,0.01438 z"
     id="path2" /></svg>
