<?xml version="1.0" encoding="UTF-8" standalone="no"?>
<svg
   height="16px"
   viewBox="0 0 16 16"
   width="16px"
   version="1.1"
   id="svg1"
   sodipodi:docname="98-aspect-4-3-symbolic.svg"
   inkscape:version="1.3.2 (091e20ef0f, 2023-11-25, custom)"
   xmlns:inkscape="http://www.inkscape.org/namespaces/inkscape"
   xmlns:sodipodi="http://sodipodi.sourceforge.net/DTD/sodipodi-0.dtd"
   xmlns="http://www.w3.org/2000/svg"
   xmlns:svg="http://www.w3.org/2000/svg">
  <defs
     id="defs1" />
  <sodipodi:namedview
     id="namedview1"
     pagecolor="#ffffff"
     bordercolor="#000000"
     borderopacity="0.25"
     inkscape:showpageshadow="2"
     inkscape:pageopacity="0.0"
     inkscape:pagecheckerboard="0"
     inkscape:deskcolor="#d1d1d1"
     showgrid="false"
     inkscape:zoom="14.75"
     inkscape:cx="8"
     inkscape:cy="8"
     inkscape:window-width="1487"
     inkscape:window-height="949"
     inkscape:window-x="26"
     inkscape:window-y="23"
     inkscape:window-maximized="0"
     inkscape:current-layer="svg1" />
  <path
     id="rect1"
     style="opacity:1;fill:#222222;fill-rule:evenodd;stroke-width:3.5"
     d="M 1 2.75 L 1 13.25 L 15 13.25 L 15 2.75 L 1 2.75 z M 10.587891 5.3984375 C 11.029514 5.3984375 11.372831 5.509983 11.621094 5.734375 C 11.869358 5.9563799 11.994141 6.2612853 11.994141 6.6503906 C 11.994141 6.9798172 11.912326 7.2580298 11.75 7.4824219 C 11.587673 7.7044268 11.358506 7.857422 11.0625 7.9433594 L 11.0625 7.9726562 C 11.391926 8.0251735 11.647135 8.1540801 11.826172 8.359375 C 12.007595 8.5646698 12.097656 8.8439675 12.097656 9.1972656 C 12.097656 9.6794698 11.947265 10.063151 11.646484 10.349609 C 11.348091 10.636067 10.938368 10.779297 10.417969 10.779297 C 9.9548617 10.779297 9.5670569 10.697916 9.2519531 10.533203 L 9.2519531 9.6582031 C 9.409505 9.7536891 9.5798614 9.8298612 9.7636719 9.8847656 C 9.9474825 9.9396702 10.123482 9.9667969 10.292969 9.9667969 C 10.569878 9.9667969 10.77908 9.9038627 10.919922 9.7773438 C 11.060764 9.6484377 11.130859 9.4448781 11.130859 9.1679688 C 11.130859 8.6451831 10.810112 8.3847656 10.167969 8.3847656 L 9.8710938 8.3847656 L 9.8710938 7.6582031 L 10.154297 7.6582031 C 10.438368 7.6582031 10.654297 7.5907116 10.804688 7.4570312 C 10.957465 7.3233509 11.035156 7.1243486 11.035156 6.859375 C 11.035156 6.651693 10.986545 6.4956596 10.888672 6.390625 C 10.793186 6.2832032 10.657118 6.2285156 10.480469 6.2285156 C 10.210721 6.2285156 9.9468312 6.3430993 9.6914062 6.5722656 L 9.2519531 5.9277344 C 9.6052512 5.5744363 10.050782 5.3984375 10.587891 5.3984375 z M 5.3671875 5.4726562 L 6.4082031 5.4726562 L 6.4082031 8.8027344 L 6.9375 8.8027344 L 6.9375 9.609375 L 6.4082031 9.609375 L 6.4082031 10.708984 L 5.4921875 10.708984 L 5.4921875 9.609375 L 3.7832031 9.609375 L 3.7832031 8.8183594 L 5.3671875 5.4726562 z M 8.0332031 6.6367188 C 8.2289494 6.6367187 8.3782554 6.6883682 8.4785156 6.7910156 C 8.5787759 6.8912759 8.6289063 7.0360246 8.6289062 7.2246094 C 8.6289062 7.4108071 8.5757377 7.5555557 8.4707031 7.6582031 C 8.3680557 7.7608505 8.2217879 7.8105469 8.0332031 7.8105469 C 7.8398441 7.8105469 7.6940103 7.7608505 7.59375 7.6582031 C 7.4934897 7.5531685 7.4433594 7.4084199 7.4433594 7.2246094 C 7.4433594 7.0384118 7.4919706 6.8936631 7.5898438 6.7910156 C 7.690104 6.6883682 7.8374569 6.6367188 8.0332031 6.6367188 z M 5.5058594 6.7480469 C 5.4223091 7.0082462 5.3322481 7.2430559 5.234375 7.453125 L 4.6035156 8.8027344 L 5.4921875 8.8027344 L 5.4921875 7.7011719 L 5.5097656 7.2128906 L 5.5351562 6.7480469 L 5.5058594 6.7480469 z M 8.0332031 9.6308594 C 8.2289494 9.6308594 8.3782554 9.6825088 8.4785156 9.7851562 C 8.5787759 9.8854165 8.6289063 10.028212 8.6289062 10.216797 C 8.6289062 10.402995 8.5757377 10.547743 8.4707031 10.650391 C 8.3680557 10.753038 8.2217879 10.804688 8.0332031 10.804688 C 7.8398441 10.804688 7.6940103 10.753038 7.59375 10.650391 C 7.4934897 10.545356 7.4433594 10.400607 7.4433594 10.216797 C 7.4433594 10.030599 7.4919706 9.8878036 7.5898438 9.7851562 C 7.690104 9.6825088 7.8374569 9.6308594 8.0332031 9.6308594 z " />
</svg>
