<?xml version="1.0" encoding="UTF-8" standalone="no"?>
<svg
   height="16px"
   viewBox="0 0 16 16"
   width="16px"
   version="1.1"
   id="svg1"
   sodipodi:docname="99-aspect-16-9-symbolic.svg"
   inkscape:version="1.3.2 (091e20ef0f, 2023-11-25, custom)"
   xmlns:inkscape="http://www.inkscape.org/namespaces/inkscape"
   xmlns:sodipodi="http://sodipodi.sourceforge.net/DTD/sodipodi-0.dtd"
   xmlns="http://www.w3.org/2000/svg"
   xmlns:svg="http://www.w3.org/2000/svg">
  <defs
     id="defs1" />
  <sodipodi:namedview
     id="namedview1"
     pagecolor="#ffffff"
     bordercolor="#000000"
     borderopacity="0.25"
     inkscape:showpageshadow="2"
     inkscape:pageopacity="0.0"
     inkscape:pagecheckerboard="0"
     inkscape:deskcolor="#d1d1d1"
     showgrid="false"
     inkscape:zoom="14.75"
     inkscape:cx="8"
     inkscape:cy="8"
     inkscape:window-width="1487"
     inkscape:window-height="949"
     inkscape:window-x="26"
     inkscape:window-y="23"
     inkscape:window-maximized="0"
     inkscape:current-layer="svg1" />
  <path
     id="rect2"
     style="opacity:1;fill:#222222;fill-rule:evenodd;stroke-width:3.03109"
     d="M 1 4.0625 L 1 11.9375 L 15 11.9375 L 15 4.0625 L 1 4.0625 z M 7.5605469 5.3007812 C 7.6679686 5.3007812 7.7753907 5.307943 7.8828125 5.3222656 C 7.9902342 5.3342016 8.0720486 5.3470055 8.1269531 5.3613281 L 8.1269531 6.1660156 C 7.9622398 6.127821 7.800564 6.109375 7.640625 6.109375 C 7.36849 6.109375 7.1449651 6.169705 6.9707031 6.2890625 C 6.7964412 6.4084202 6.6629773 6.587457 6.5722656 6.8261719 C 6.4815539 7.0624997 6.4273003 7.3945319 6.4082031 7.8242188 L 6.4472656 7.8242188 C 6.5308159 7.6260853 6.6453995 7.4772134 6.7910156 7.3769531 C 6.9366317 7.2743057 7.105903 7.2226563 7.296875 7.2226562 C 7.6477859 7.2226562 7.9214412 7.3658858 8.1171875 7.6523438 C 8.3129337 7.9364145 8.4101562 8.3430997 8.4101562 8.8730469 C 8.4101562 9.4268655 8.2812496 9.8667538 8.0234375 10.191406 C 7.7656254 10.513671 7.416232 10.673828 6.9746094 10.673828 C 6.5067281 10.673828 6.1497393 10.480468 5.90625 10.09375 C 5.6651479 9.7070319 5.5449219 9.1356326 5.5449219 8.3789062 C 5.5449219 7.3118505 5.7111549 6.5327684 6.0429688 6.0410156 C 6.3747825 5.5468757 6.8802093 5.3007813 7.5605469 5.3007812 z M 12.3125 5.3007812 C 12.780381 5.3007812 13.138455 5.5028218 13.386719 5.90625 C 13.637369 6.3096783 13.763672 6.889324 13.763672 7.6484375 C 13.763672 9.6655787 13.088974 10.673828 11.740234 10.673828 C 11.515843 10.673828 11.329644 10.655381 11.181641 10.617188 L 11.181641 9.796875 C 11.343966 9.8493923 11.495877 9.8769531 11.636719 9.8769531 C 12.035373 9.8769531 12.337674 9.7378468 12.542969 9.4609375 C 12.750651 9.1840282 12.865235 8.7486971 12.886719 8.1542969 L 12.853516 8.1542969 C 12.777126 8.3428817 12.666666 8.4902346 12.523438 8.5976562 C 12.382596 8.7026908 12.215278 8.7558594 12.019531 8.7558594 C 11.663846 8.7558594 11.387153 8.6095916 11.191406 8.3183594 C 10.99566 8.0271271 10.898438 7.6276034 10.898438 7.1191406 C 10.898438 6.5605477 11.025825 6.118055 11.28125 5.7910156 C 11.539062 5.4639762 11.882813 5.3007812 12.3125 5.3007812 z M 3.6289062 5.3691406 L 4.4960938 5.3691406 L 4.4960938 10.603516 L 3.5371094 10.603516 L 3.5371094 7.53125 C 3.5371094 7.1970491 3.5525175 6.8133674 3.5859375 6.3789062 C 3.5692275 6.4027776 3.5078124 6.4739583 3.4003906 6.5957031 C 3.2953561 6.7174477 3.0891923 6.9368494 2.78125 7.2519531 L 2.2363281 6.6582031 L 3.6289062 5.3691406 z M 12.320312 6.1308594 C 12.177084 6.1308594 12.0625 6.2081165 11.976562 6.3632812 C 11.893013 6.518446 11.851562 6.7634554 11.851562 7.0976562 C 11.851562 7.3721784 11.888889 7.5870228 11.962891 7.7421875 C 12.036893 7.8949651 12.148438 7.9707031 12.298828 7.9707031 C 12.434895 7.9707031 12.552083 7.893446 12.652344 7.7382812 C 12.752604 7.5807294 12.802734 7.4016925 12.802734 7.2011719 C 12.802734 6.8908425 12.7602 6.6360674 12.671875 6.4355469 C 12.583551 6.2326392 12.465929 6.1308594 12.320312 6.1308594 z M 9.6640625 6.53125 C 9.8598088 6.53125 10.007162 6.5828994 10.107422 6.6855469 C 10.207682 6.7858071 10.257812 6.9305558 10.257812 7.1191406 C 10.257812 7.3053383 10.204644 7.450087 10.099609 7.5527344 C 9.9969618 7.6553818 9.8526473 7.7070312 9.6640625 7.7070312 C 9.4707034 7.7070313 9.3229165 7.6553818 9.2226562 7.5527344 C 9.122396 7.4476998 9.0722656 7.3029511 9.0722656 7.1191406 C 9.0722656 6.9329429 9.1208769 6.7881942 9.21875 6.6855469 C 9.3190103 6.5828994 9.4683163 6.53125 9.6640625 6.53125 z M 6.9882812 8.0078125 C 6.8474394 8.0078125 6.7328558 8.0809464 6.6445312 8.2265625 C 6.5562067 8.3721786 6.5117188 8.5553388 6.5117188 8.7773438 C 6.5117188 9.1258675 6.5536026 9.3919273 6.6347656 9.578125 C 6.7183159 9.7619355 6.8324655 9.8554688 6.9804688 9.8554688 C 7.1236977 9.8554688 7.2382814 9.7766925 7.3242188 9.6191406 C 7.4125433 9.4615888 7.4570312 9.2150603 7.4570312 8.8808594 C 7.4570312 8.6111115 7.4186197 8.3993053 7.3398438 8.2441406 C 7.263455 8.0865887 7.1458331 8.0078125 6.9882812 8.0078125 z M 9.6640625 9.5253906 C 9.8598088 9.5253906 10.007162 9.5770401 10.107422 9.6796875 C 10.207682 9.7799478 10.257812 9.9246963 10.257812 10.113281 C 10.257812 10.299479 10.204644 10.442275 10.099609 10.544922 C 9.9969618 10.647569 9.8526473 10.699219 9.6640625 10.699219 C 9.4707034 10.699219 9.3229165 10.647569 9.2226562 10.544922 C 9.122396 10.439887 9.0722656 10.297092 9.0722656 10.113281 C 9.0722656 9.9270834 9.1208769 9.7823349 9.21875 9.6796875 C 9.3190103 9.5770401 9.4683163 9.5253906 9.6640625 9.5253906 z " />
</svg>
