<?xml version="1.0" encoding="UTF-8" standalone="no"?>
<svg
   height="16px"
   viewBox="0 0 16 16"
   width="16px"
   version="1.1"
   id="svg4"
   sodipodi:docname="follow-face-off-symbolic.svg"
   inkscape:version="1.3.2 (091e20ef0f, 2023-11-25, custom)"
   xmlns:inkscape="http://www.inkscape.org/namespaces/inkscape"
   xmlns:sodipodi="http://sodipodi.sourceforge.net/DTD/sodipodi-0.dtd"
   xmlns="http://www.w3.org/2000/svg"
   xmlns:svg="http://www.w3.org/2000/svg">
  <defs
     id="defs4" />
  <sodipodi:namedview
     id="namedview4"
     pagecolor="#ffffff"
     bordercolor="#000000"
     borderopacity="0.25"
     inkscape:showpageshadow="2"
     inkscape:pageopacity="0.0"
     inkscape:pagecheckerboard="0"
     inkscape:deskcolor="#d1d1d1"
     inkscape:zoom="16.01"
     inkscape:cx="6.7145534"
     inkscape:cy="8.9943785"
     inkscape:window-width="1487"
     inkscape:window-height="949"
     inkscape:window-x="26"
     inkscape:window-y="23"
     inkscape:window-maximized="0"
     inkscape:current-layer="svg4" />
  <g
     fill="#222222"
     id="g4">
    <path
       d="m 2 0 s -0.457031 -0.015625 -0.949219 0.230469 c -0.488281 0.246093 -1.050781 0.9375 -1.050781 1.769531 v 3 h 2 v -3 h 3 v -2 z m 9 0 v 2 h 3 v 3 h 2 v -3 c 0 -0.832031 -0.5625 -1.523438 -1.050781 -1.769531 c -0.492188 -0.246094 -0.949219 -0.230469 -0.949219 -0.230469 z m -11 11 v 3 c 0 0.832031 0.5625 1.523438 1.050781 1.769531 c 0.492188 0.246094 0.949219 0.230469 0.949219 0.230469 h 3 v -2 h -3 v -3 z m 14 0 v 3 h -3 v 2 h 3 s 0.457031 0.015625 0.949219 -0.230469 c 0.488281 -0.246093 1.050781 -0.9375 1.050781 -1.769531 v -3 z m 0 0"
       id="path1" />
  </g>
  <path
     id="path1-3"
     style="stroke-width:0.779703;fill:#222222;fill-opacity:1"
     d="M 8 3.2402344 C 6.7086191 3.2402344 5.6601562 4.2867443 5.6601562 5.578125 C 5.6601562 6.8695055 6.7086191 7.9179688 8 7.9179688 C 9.2913808 7.9179688 10.339844 6.8695055 10.339844 5.578125 C 10.339844 4.2867443 9.2913807 3.2402345 8 3.2402344 z M 7.3339844 8.6972656 L 11.396484 12.759766 L 11.898438 12.759766 C 12.522405 12.737486 12.677734 12.303725 12.677734 11.875 C 12.677734 9.931836 11.113084 8.6972656 9.1699219 8.6972656 L 7.3339844 8.6972656 z M 4.9238281 9.1601562 C 3.9592284 9.6865515 3.3222656 10.636315 3.3222656 11.875 C 3.3222656 12.303706 3.4775827 12.737481 4.1015625 12.759766 L 8.5234375 12.759766 L 4.9238281 9.1601562 z " />
  <rect
     style="display:inline;fill:#222222;fill-opacity:1;fill-rule:evenodd;stroke-width:166.94"
     id="rect1"
     width="13.334168"
     height="2.0309911"
     x="4.6466241"
     y="-1.0154954"
     transform="rotate(45)"
     ry="0.74494934" />
</svg>
